<mxfile host="Electron" modified="2024-09-03T15:10:38.277Z" agent="Mozilla/5.0 (Windows NT 10.0; Win64; x64) AppleWebKit/537.36 (KHTML, like Gecko) draw.io/22.0.2 Chrome/114.0.5735.289 Electron/25.8.4 Safari/537.36" etag="zbK4Rq-fyofMvQwpY1SB" version="22.0.2" type="device">
  <diagram name="Page-1" id="aTVyfKz3Pb-7PAJS-KFY">
    <mxGraphModel dx="5798" dy="3593" grid="1" gridSize="10" guides="1" tooltips="1" connect="1" arrows="1" fold="1" page="1" pageScale="1" pageWidth="827" pageHeight="1169" math="0" shadow="0">
      <root>
        <mxCell id="0" />
        <mxCell id="1" parent="0" />
        <mxCell id="4-nQHDzcqD7yIo2uNKvR-225" value="" style="rounded=1;whiteSpace=wrap;html=1;" parent="1" vertex="1">
          <mxGeometry x="-870" y="3000" width="3980" height="1660" as="geometry" />
        </mxCell>
        <mxCell id="F2C1mFBNP2JFjnUDeWym-61" value="" style="rounded=1;whiteSpace=wrap;html=1;" vertex="1" parent="1">
          <mxGeometry x="380" y="3270" width="650" height="690" as="geometry" />
        </mxCell>
        <mxCell id="qhFvG6cmTSDnCsx3UZlA-85" value="" style="rounded=1;whiteSpace=wrap;html=1;" parent="1" vertex="1">
          <mxGeometry x="1364" y="-290" width="1480" height="800" as="geometry" />
        </mxCell>
        <mxCell id="qhFvG6cmTSDnCsx3UZlA-78" value="" style="rounded=1;whiteSpace=wrap;html=1;" parent="1" vertex="1">
          <mxGeometry x="2034" y="-210" width="720" height="570" as="geometry" />
        </mxCell>
        <mxCell id="qhFvG6cmTSDnCsx3UZlA-49" value="" style="rounded=1;whiteSpace=wrap;html=1;" parent="1" vertex="1">
          <mxGeometry x="1539" y="20" width="430" height="340" as="geometry" />
        </mxCell>
        <mxCell id="qhFvG6cmTSDnCsx3UZlA-44" value="" style="rounded=1;whiteSpace=wrap;html=1;" parent="1" vertex="1">
          <mxGeometry x="1366" y="1500" width="936" height="580" as="geometry" />
        </mxCell>
        <mxCell id="qhFvG6cmTSDnCsx3UZlA-27" value="" style="rounded=1;whiteSpace=wrap;html=1;" parent="1" vertex="1">
          <mxGeometry x="1372" y="610" width="950" height="800" as="geometry" />
        </mxCell>
        <mxCell id="qhFvG6cmTSDnCsx3UZlA-1" value="" style="rounded=1;whiteSpace=wrap;html=1;" parent="1" vertex="1">
          <mxGeometry x="-810" y="-300" width="2080" height="1520" as="geometry" />
        </mxCell>
        <mxCell id="_KHkPC-QZNlYdo7Y7j0--43" value="" style="rounded=1;whiteSpace=wrap;html=1;" parent="1" vertex="1">
          <mxGeometry x="430" y="-95" width="480" height="70" as="geometry" />
        </mxCell>
        <mxCell id="_KHkPC-QZNlYdo7Y7j0--37" value="" style="rounded=1;whiteSpace=wrap;html=1;" parent="1" vertex="1">
          <mxGeometry x="790" y="310" width="370" height="130" as="geometry" />
        </mxCell>
        <mxCell id="_KHkPC-QZNlYdo7Y7j0--9" value="" style="shape=cube;whiteSpace=wrap;html=1;boundedLbl=1;backgroundOutline=1;darkOpacity=0.05;darkOpacity2=0.1;" parent="1" vertex="1">
          <mxGeometry x="250" y="100" width="410" height="330" as="geometry" />
        </mxCell>
        <mxCell id="_KHkPC-QZNlYdo7Y7j0--10" value="VDU" style="text;html=1;align=center;verticalAlign=middle;resizable=0;points=[];autosize=1;strokeColor=none;fillColor=none;" parent="1" vertex="1">
          <mxGeometry x="280" y="130" width="50" height="30" as="geometry" />
        </mxCell>
        <mxCell id="_KHkPC-QZNlYdo7Y7j0--11" value="" style="shape=link;html=1;rounded=0;entryX=0;entryY=0.5;entryDx=0;entryDy=0;exitX=1.024;exitY=0.48;exitDx=0;exitDy=0;exitPerimeter=0;" parent="1" target="_KHkPC-QZNlYdo7Y7j0--15" edge="1">
          <mxGeometry width="100" relative="1" as="geometry">
            <mxPoint x="152.4000000000001" y="254.4000000000001" as="sourcePoint" />
            <mxPoint x="260" y="250" as="targetPoint" />
          </mxGeometry>
        </mxCell>
        <mxCell id="_KHkPC-QZNlYdo7Y7j0--13" value="Filebeat" style="ellipse;whiteSpace=wrap;html=1;aspect=fixed;" parent="1" vertex="1">
          <mxGeometry x="430" y="280" width="80" height="80" as="geometry" />
        </mxCell>
        <mxCell id="_KHkPC-QZNlYdo7Y7j0--45" style="rounded=0;orthogonalLoop=1;jettySize=auto;html=1;exitX=0;exitY=1;exitDx=0;exitDy=0;" parent="1" source="_KHkPC-QZNlYdo7Y7j0--15" target="_KHkPC-QZNlYdo7Y7j0--44" edge="1">
          <mxGeometry relative="1" as="geometry" />
        </mxCell>
        <mxCell id="_KHkPC-QZNlYdo7Y7j0--15" value="" style="ellipse;whiteSpace=wrap;html=1;aspect=fixed;" parent="1" vertex="1">
          <mxGeometry x="270" y="240" width="30" height="30" as="geometry" />
        </mxCell>
        <mxCell id="_KHkPC-QZNlYdo7Y7j0--16" value="Gateway&lt;br&gt;Zeek" style="ellipse;whiteSpace=wrap;html=1;aspect=fixed;" parent="1" vertex="1">
          <mxGeometry x="340" y="160" width="80" height="80" as="geometry" />
        </mxCell>
        <mxCell id="_KHkPC-QZNlYdo7Y7j0--17" value="Network Function" style="ellipse;whiteSpace=wrap;html=1;aspect=fixed;" parent="1" vertex="1">
          <mxGeometry x="530" y="160" width="80" height="80" as="geometry" />
        </mxCell>
        <mxCell id="_KHkPC-QZNlYdo7Y7j0--18" value="" style="endArrow=none;dashed=1;html=1;dashPattern=1 3;strokeWidth=2;rounded=0;entryX=0;entryY=0.5;entryDx=0;entryDy=0;exitX=1;exitY=0;exitDx=0;exitDy=0;" parent="1" source="_KHkPC-QZNlYdo7Y7j0--15" target="_KHkPC-QZNlYdo7Y7j0--16" edge="1">
          <mxGeometry width="50" height="50" relative="1" as="geometry">
            <mxPoint x="120" y="410" as="sourcePoint" />
            <mxPoint x="170" y="360" as="targetPoint" />
          </mxGeometry>
        </mxCell>
        <mxCell id="_KHkPC-QZNlYdo7Y7j0--19" value="" style="endArrow=none;dashed=1;html=1;dashPattern=1 3;strokeWidth=2;rounded=0;entryX=0;entryY=0.5;entryDx=0;entryDy=0;exitX=1;exitY=0.5;exitDx=0;exitDy=0;" parent="1" source="_KHkPC-QZNlYdo7Y7j0--16" target="_KHkPC-QZNlYdo7Y7j0--17" edge="1">
          <mxGeometry width="50" height="50" relative="1" as="geometry">
            <mxPoint x="460" y="230" as="sourcePoint" />
            <mxPoint x="510" y="180" as="targetPoint" />
          </mxGeometry>
        </mxCell>
        <mxCell id="_KHkPC-QZNlYdo7Y7j0--20" value="" style="shape=link;html=1;rounded=0;entryX=0;entryY=1;entryDx=0;entryDy=0;exitX=1;exitY=0;exitDx=0;exitDy=0;width=19;" parent="1" source="_KHkPC-QZNlYdo7Y7j0--13" target="_KHkPC-QZNlYdo7Y7j0--17" edge="1">
          <mxGeometry width="100" relative="1" as="geometry">
            <mxPoint x="480" y="260" as="sourcePoint" />
            <mxPoint x="580" y="260" as="targetPoint" />
          </mxGeometry>
        </mxCell>
        <mxCell id="_KHkPC-QZNlYdo7Y7j0--21" value="" style="shape=link;html=1;rounded=0;entryX=1;entryY=1;entryDx=0;entryDy=0;exitX=0;exitY=0;exitDx=0;exitDy=0;width=19;" parent="1" source="_KHkPC-QZNlYdo7Y7j0--13" target="_KHkPC-QZNlYdo7Y7j0--16" edge="1">
          <mxGeometry width="100" relative="1" as="geometry">
            <mxPoint x="508" y="302" as="sourcePoint" />
            <mxPoint x="552" y="238" as="targetPoint" />
          </mxGeometry>
        </mxCell>
        <mxCell id="_KHkPC-QZNlYdo7Y7j0--47" style="rounded=0;orthogonalLoop=1;jettySize=auto;html=1;exitX=0;exitY=1;exitDx=0;exitDy=0;entryX=1.008;entryY=0.765;entryDx=0;entryDy=0;startArrow=classic;startFill=1;endArrow=baseDash;endFill=0;entryPerimeter=0;" parent="1" source="_KHkPC-QZNlYdo7Y7j0--26" target="_KHkPC-QZNlYdo7Y7j0--44" edge="1">
          <mxGeometry relative="1" as="geometry">
            <mxPoint x="362.0699999999997" y="472.2399999999998" as="targetPoint" />
          </mxGeometry>
        </mxCell>
        <mxCell id="_KHkPC-QZNlYdo7Y7j0--49" value="Simimal but without gateway routing" style="edgeLabel;html=1;align=center;verticalAlign=middle;resizable=0;points=[];" parent="_KHkPC-QZNlYdo7Y7j0--47" vertex="1" connectable="0">
          <mxGeometry x="0.0278" y="6" relative="1" as="geometry">
            <mxPoint as="offset" />
          </mxGeometry>
        </mxCell>
        <mxCell id="_KHkPC-QZNlYdo7Y7j0--26" value="" style="ellipse;whiteSpace=wrap;html=1;aspect=fixed;" parent="1" vertex="1">
          <mxGeometry x="455" y="400" width="30" height="30" as="geometry" />
        </mxCell>
        <mxCell id="_KHkPC-QZNlYdo7Y7j0--27" value="" style="endArrow=none;dashed=1;html=1;dashPattern=1 3;strokeWidth=2;rounded=0;exitX=0.5;exitY=0;exitDx=0;exitDy=0;entryX=0.5;entryY=1;entryDx=0;entryDy=0;" parent="1" source="_KHkPC-QZNlYdo7Y7j0--26" target="_KHkPC-QZNlYdo7Y7j0--13" edge="1">
          <mxGeometry width="50" height="50" relative="1" as="geometry">
            <mxPoint x="390" y="300" as="sourcePoint" />
            <mxPoint x="440" y="250" as="targetPoint" />
          </mxGeometry>
        </mxCell>
        <mxCell id="_KHkPC-QZNlYdo7Y7j0--28" value="" style="shape=link;html=1;rounded=0;exitX=0.5;exitY=1;exitDx=0;exitDy=0;" parent="1" source="_KHkPC-QZNlYdo7Y7j0--26" edge="1">
          <mxGeometry width="100" relative="1" as="geometry">
            <mxPoint x="460" y="520" as="sourcePoint" />
            <mxPoint x="470" y="520" as="targetPoint" />
          </mxGeometry>
        </mxCell>
        <mxCell id="_KHkPC-QZNlYdo7Y7j0--31" value="5G Comm network" style="text;html=1;align=center;verticalAlign=middle;resizable=0;points=[];autosize=1;strokeColor=none;fillColor=none;" parent="1" vertex="1">
          <mxGeometry x="30" y="240" width="120" height="30" as="geometry" />
        </mxCell>
        <mxCell id="_KHkPC-QZNlYdo7Y7j0--32" value="ELK Network" style="text;html=1;strokeColor=none;fillColor=none;align=center;verticalAlign=middle;whiteSpace=wrap;rounded=0;" parent="1" vertex="1">
          <mxGeometry x="440" y="530" width="60" height="30" as="geometry" />
        </mxCell>
        <mxCell id="_KHkPC-QZNlYdo7Y7j0--34" value="" style="endArrow=classic;html=1;rounded=0;" parent="1" edge="1">
          <mxGeometry width="50" height="50" relative="1" as="geometry">
            <mxPoint x="790" y="320" as="sourcePoint" />
            <mxPoint x="530" y="270" as="targetPoint" />
          </mxGeometry>
        </mxCell>
        <mxCell id="_KHkPC-QZNlYdo7Y7j0--35" value="Directories containing logs from Zeek and&lt;br&gt;&amp;nbsp;the network function are shared with filebeat container" style="text;html=1;align=center;verticalAlign=middle;resizable=0;points=[];autosize=1;strokeColor=none;fillColor=none;" parent="1" vertex="1">
          <mxGeometry x="820" y="350" width="310" height="40" as="geometry" />
        </mxCell>
        <mxCell id="_KHkPC-QZNlYdo7Y7j0--36" value="" style="endArrow=classic;html=1;rounded=0;" parent="1" edge="1">
          <mxGeometry width="50" height="50" relative="1" as="geometry">
            <mxPoint x="790" y="350" as="sourcePoint" />
            <mxPoint x="440" y="260" as="targetPoint" />
          </mxGeometry>
        </mxCell>
        <mxCell id="_KHkPC-QZNlYdo7Y7j0--38" value="" style="endArrow=classic;html=1;rounded=0;entryX=0.5;entryY=0;entryDx=0;entryDy=0;exitX=1;exitY=0.5;exitDx=0;exitDy=0;" parent="1" source="_KHkPC-QZNlYdo7Y7j0--39" target="_KHkPC-QZNlYdo7Y7j0--15" edge="1">
          <mxGeometry width="50" height="50" relative="1" as="geometry">
            <mxPoint x="70" y="50" as="sourcePoint" />
            <mxPoint x="400" y="110" as="targetPoint" />
          </mxGeometry>
        </mxCell>
        <mxCell id="_KHkPC-QZNlYdo7Y7j0--39" value="" style="rounded=1;whiteSpace=wrap;html=1;" parent="1" vertex="1">
          <mxGeometry x="-300" y="20" width="360" height="80" as="geometry" />
        </mxCell>
        <mxCell id="_KHkPC-QZNlYdo7Y7j0--40" value="Traffic Addressed to host ip is redirected to the network function &lt;br&gt;and routed through the gateway container" style="text;html=1;align=center;verticalAlign=middle;resizable=0;points=[];autosize=1;strokeColor=none;fillColor=none;" parent="1" vertex="1">
          <mxGeometry x="-300" y="40" width="360" height="40" as="geometry" />
        </mxCell>
        <mxCell id="_KHkPC-QZNlYdo7Y7j0--41" value="" style="endArrow=classic;html=1;rounded=0;entryX=0.5;entryY=0;entryDx=0;entryDy=0;exitX=0.406;exitY=1.004;exitDx=0;exitDy=0;exitPerimeter=0;" parent="1" source="_KHkPC-QZNlYdo7Y7j0--42" target="_KHkPC-QZNlYdo7Y7j0--17" edge="1">
          <mxGeometry width="50" height="50" relative="1" as="geometry">
            <mxPoint x="610" y="-10" as="sourcePoint" />
            <mxPoint x="450" y="240" as="targetPoint" />
          </mxGeometry>
        </mxCell>
        <mxCell id="_KHkPC-QZNlYdo7Y7j0--42" value="Potential issue regarding layer 2 discovery protocols.&lt;br&gt;However most modern 5G network functions do not utilize&lt;br&gt;broadcasts, so this should be fine.&amp;nbsp;" style="text;html=1;align=center;verticalAlign=middle;resizable=0;points=[];autosize=1;strokeColor=none;fillColor=none;" parent="1" vertex="1">
          <mxGeometry x="500" y="-90" width="330" height="60" as="geometry" />
        </mxCell>
        <mxCell id="_KHkPC-QZNlYdo7Y7j0--44" value="&lt;div style=&quot;color: rgb(212, 212, 212); background-color: rgb(30, 30, 30); font-family: Consolas, &amp;quot;Courier New&amp;quot;, monospace; font-size: 14px; line-height: 19px;&quot;&gt;&lt;div&gt;# On the VM (external host) - DNAT to forward all traffic to the internal container via the gateway container&lt;/div&gt;&lt;div&gt;&lt;span style=&quot;color: #c8c8c8;&quot;&gt;echo&lt;/span&gt; &lt;span style=&quot;color: #ce9178;&quot;&gt;&quot;Setting up DNAT to forward traffic to the internal container&quot;&lt;/span&gt;&lt;/div&gt;&lt;div&gt;&lt;span style=&quot;color: #c8c8c8;&quot;&gt;sudo&lt;/span&gt; &lt;span style=&quot;color: #ce9178;&quot;&gt;iptables&lt;/span&gt; &lt;span style=&quot;color: #ce9178;&quot;&gt;-t&lt;/span&gt; &lt;span style=&quot;color: #ce9178;&quot;&gt;nat&lt;/span&gt; &lt;span style=&quot;color: #ce9178;&quot;&gt;-A&lt;/span&gt; &lt;span style=&quot;color: #ce9178;&quot;&gt;PREROUTING&lt;/span&gt; &lt;span style=&quot;color: #ce9178;&quot;&gt;-d&lt;/span&gt; &lt;span style=&quot;color: #c8c8c8;&quot;&gt;$VM_EXTERNAL_IP&lt;/span&gt; &lt;span style=&quot;color: #ce9178;&quot;&gt;-j&lt;/span&gt; &lt;span style=&quot;color: #ce9178;&quot;&gt;DNAT&lt;/span&gt; &lt;span style=&quot;color: #ce9178;&quot;&gt;--to-destination&lt;/span&gt; &lt;span style=&quot;color: #c8c8c8;&quot;&gt;$INTERNAL_CONTAINER_IP&lt;/span&gt;&lt;/div&gt;&lt;br&gt;&lt;div&gt;&lt;span style=&quot;color: #6a9955;&quot;&gt;# This bugger took me &amp;nbsp;forever to fix&lt;/span&gt;&lt;/div&gt;&lt;div&gt;&lt;span style=&quot;color: #c8c8c8;&quot;&gt;sudo&lt;/span&gt; &lt;span style=&quot;color: #ce9178;&quot;&gt;iptables&lt;/span&gt; &lt;span style=&quot;color: #ce9178;&quot;&gt;-A&lt;/span&gt; &lt;span style=&quot;color: #ce9178;&quot;&gt;FORWARD&lt;/span&gt; &lt;span style=&quot;color: #ce9178;&quot;&gt;-d&lt;/span&gt; &lt;span style=&quot;color: #c8c8c8;&quot;&gt;$INTERNAL_CONTAINER_IP&lt;/span&gt; &lt;span style=&quot;color: #ce9178;&quot;&gt;-j&lt;/span&gt; &lt;span style=&quot;color: #ce9178;&quot;&gt;ACCEPT&lt;/span&gt;&lt;/div&gt;&lt;br&gt;&lt;div&gt;&lt;span style=&quot;color: #6a9955;&quot;&gt;# On the VM (external host) - Add a route to forward traffic for the internal container via the gateway container&lt;/span&gt;&lt;/div&gt;&lt;div&gt;&lt;span style=&quot;color: #c8c8c8;&quot;&gt;echo&lt;/span&gt; &lt;span style=&quot;color: #ce9178;&quot;&gt;&quot;Adding route to forward traffic to the internal container via the gateway container&quot;&lt;/span&gt;&lt;/div&gt;&lt;div&gt;&lt;span style=&quot;color: #c8c8c8;&quot;&gt;sudo&lt;/span&gt; &lt;span style=&quot;color: #ce9178;&quot;&gt;ip&lt;/span&gt; &lt;span style=&quot;color: #ce9178;&quot;&gt;route&lt;/span&gt; &lt;span style=&quot;color: #ce9178;&quot;&gt;add&lt;/span&gt; &lt;span style=&quot;color: #c8c8c8;&quot;&gt;$INTERNAL_CONTAINER_IP&lt;/span&gt; &lt;span style=&quot;color: #ce9178;&quot;&gt;via&lt;/span&gt; &lt;span style=&quot;color: #c8c8c8;&quot;&gt;$GATEWAY_IP&lt;/span&gt;&lt;/div&gt;&lt;br&gt;&lt;div&gt;&lt;span style=&quot;color: #6a9955;&quot;&gt;# On the gateway container - Set up NAT (optional, if you want to masquerade outgoing traffic)&lt;/span&gt;&lt;/div&gt;&lt;div&gt;&lt;span style=&quot;color: #c8c8c8;&quot;&gt;echo&lt;/span&gt; &lt;span style=&quot;color: #ce9178;&quot;&gt;&quot;Setting up NAT on the gateway container (if required)&quot;&lt;/span&gt;&lt;/div&gt;&lt;div&gt;&lt;span style=&quot;color: #c8c8c8;&quot;&gt;sudo&lt;/span&gt; &lt;span style=&quot;color: #ce9178;&quot;&gt;iptables&lt;/span&gt; &lt;span style=&quot;color: #ce9178;&quot;&gt;-t&lt;/span&gt; &lt;span style=&quot;color: #ce9178;&quot;&gt;nat&lt;/span&gt; &lt;span style=&quot;color: #ce9178;&quot;&gt;-A&lt;/span&gt; &lt;span style=&quot;color: #ce9178;&quot;&gt;POSTROUTING&lt;/span&gt; &lt;span style=&quot;color: #ce9178;&quot;&gt;-o&lt;/span&gt; &lt;span style=&quot;color: #c8c8c8;&quot;&gt;$EXTERNAL_INTERFACE&lt;/span&gt; &lt;span style=&quot;color: #ce9178;&quot;&gt;-j&lt;/span&gt; &lt;span style=&quot;color: #ce9178;&quot;&gt;MASQUERADE&lt;/span&gt;&lt;/div&gt;&lt;/div&gt;" style="text;html=1;align=left;verticalAlign=middle;resizable=0;points=[];autosize=1;strokeColor=none;fillColor=none;" parent="1" vertex="1">
          <mxGeometry x="-720" y="350" width="890" height="280" as="geometry" />
        </mxCell>
        <mxCell id="_KHkPC-QZNlYdo7Y7j0--50" value="" style="shape=cube;whiteSpace=wrap;html=1;boundedLbl=1;backgroundOutline=1;darkOpacity=0.05;darkOpacity2=0.1;" parent="1" vertex="1">
          <mxGeometry x="230" y="740" width="480" height="370" as="geometry" />
        </mxCell>
        <mxCell id="_KHkPC-QZNlYdo7Y7j0--51" value="Logstash" style="ellipse;whiteSpace=wrap;html=1;aspect=fixed;" parent="1" vertex="1">
          <mxGeometry x="430" y="860" width="80" height="80" as="geometry" />
        </mxCell>
        <mxCell id="_KHkPC-QZNlYdo7Y7j0--52" value="ElasticSearch" style="ellipse;whiteSpace=wrap;html=1;aspect=fixed;" parent="1" vertex="1">
          <mxGeometry x="530" y="970" width="80" height="80" as="geometry" />
        </mxCell>
        <mxCell id="_KHkPC-QZNlYdo7Y7j0--53" value="Kibana" style="ellipse;whiteSpace=wrap;html=1;aspect=fixed;" parent="1" vertex="1">
          <mxGeometry x="334" y="970" width="80" height="80" as="geometry" />
        </mxCell>
        <mxCell id="_KHkPC-QZNlYdo7Y7j0--55" value="" style="ellipse;whiteSpace=wrap;html=1;aspect=fixed;" parent="1" vertex="1">
          <mxGeometry x="455" y="760" width="30" height="30" as="geometry" />
        </mxCell>
        <mxCell id="_KHkPC-QZNlYdo7Y7j0--56" value="" style="shape=link;html=1;rounded=0;entryX=0.5;entryY=1;entryDx=0;entryDy=0;exitX=0.5;exitY=0;exitDx=0;exitDy=0;" parent="1" source="_KHkPC-QZNlYdo7Y7j0--55" target="_KHkPC-QZNlYdo7Y7j0--32" edge="1">
          <mxGeometry width="100" relative="1" as="geometry">
            <mxPoint x="400" y="770" as="sourcePoint" />
            <mxPoint x="500" y="770" as="targetPoint" />
          </mxGeometry>
        </mxCell>
        <mxCell id="_KHkPC-QZNlYdo7Y7j0--57" style="rounded=0;orthogonalLoop=1;jettySize=auto;html=1;exitX=0;exitY=0;exitDx=0;exitDy=0;entryX=1.008;entryY=0.765;entryDx=0;entryDy=0;startArrow=classic;startFill=1;endArrow=baseDash;endFill=0;entryPerimeter=0;" parent="1" source="_KHkPC-QZNlYdo7Y7j0--55" edge="1">
          <mxGeometry relative="1" as="geometry">
            <mxPoint x="469" y="436" as="sourcePoint" />
            <mxPoint x="187" y="574" as="targetPoint" />
          </mxGeometry>
        </mxCell>
        <mxCell id="_KHkPC-QZNlYdo7Y7j0--58" value="Similar but without gateway routing" style="edgeLabel;html=1;align=center;verticalAlign=middle;resizable=0;points=[];" parent="_KHkPC-QZNlYdo7Y7j0--57" vertex="1" connectable="0">
          <mxGeometry x="0.0278" y="6" relative="1" as="geometry">
            <mxPoint as="offset" />
          </mxGeometry>
        </mxCell>
        <mxCell id="_KHkPC-QZNlYdo7Y7j0--59" value="" style="endArrow=none;dashed=1;html=1;dashPattern=1 3;strokeWidth=2;rounded=0;exitX=0.5;exitY=0;exitDx=0;exitDy=0;entryX=0.5;entryY=1;entryDx=0;entryDy=0;" parent="1" source="_KHkPC-QZNlYdo7Y7j0--51" target="_KHkPC-QZNlYdo7Y7j0--55" edge="1">
          <mxGeometry width="50" height="50" relative="1" as="geometry">
            <mxPoint x="430" y="830" as="sourcePoint" />
            <mxPoint x="480" y="780" as="targetPoint" />
          </mxGeometry>
        </mxCell>
        <mxCell id="_KHkPC-QZNlYdo7Y7j0--60" value="" style="endArrow=classic;html=1;rounded=0;entryX=0;entryY=0;entryDx=0;entryDy=0;exitX=1;exitY=1;exitDx=0;exitDy=0;" parent="1" source="_KHkPC-QZNlYdo7Y7j0--51" target="_KHkPC-QZNlYdo7Y7j0--52" edge="1">
          <mxGeometry relative="1" as="geometry">
            <mxPoint x="400" y="900" as="sourcePoint" />
            <mxPoint x="500" y="900" as="targetPoint" />
          </mxGeometry>
        </mxCell>
        <mxCell id="_KHkPC-QZNlYdo7Y7j0--61" value="Store" style="edgeLabel;resizable=0;html=1;align=center;verticalAlign=middle;" parent="_KHkPC-QZNlYdo7Y7j0--60" connectable="0" vertex="1">
          <mxGeometry relative="1" as="geometry" />
        </mxCell>
        <mxCell id="_KHkPC-QZNlYdo7Y7j0--66" value="" style="endArrow=classic;startArrow=classic;html=1;rounded=0;entryX=0;entryY=0.5;entryDx=0;entryDy=0;exitX=1;exitY=0.5;exitDx=0;exitDy=0;" parent="1" source="_KHkPC-QZNlYdo7Y7j0--53" target="_KHkPC-QZNlYdo7Y7j0--52" edge="1">
          <mxGeometry width="50" height="50" relative="1" as="geometry">
            <mxPoint x="430" y="920" as="sourcePoint" />
            <mxPoint x="480" y="870" as="targetPoint" />
          </mxGeometry>
        </mxCell>
        <mxCell id="_KHkPC-QZNlYdo7Y7j0--67" value="Display/Interact" style="edgeLabel;html=1;align=center;verticalAlign=middle;resizable=0;points=[];" parent="_KHkPC-QZNlYdo7Y7j0--66" vertex="1" connectable="0">
          <mxGeometry x="0.0216" relative="1" as="geometry">
            <mxPoint as="offset" />
          </mxGeometry>
        </mxCell>
        <mxCell id="_KHkPC-QZNlYdo7Y7j0--69" style="edgeStyle=orthogonalEdgeStyle;rounded=0;orthogonalLoop=1;jettySize=auto;html=1;dashed=1;endArrow=none;endFill=0;" parent="1" source="_KHkPC-QZNlYdo7Y7j0--68" target="_KHkPC-QZNlYdo7Y7j0--53" edge="1">
          <mxGeometry relative="1" as="geometry" />
        </mxCell>
        <mxCell id="_KHkPC-QZNlYdo7Y7j0--68" value="" style="rhombus;whiteSpace=wrap;html=1;" parent="1" vertex="1">
          <mxGeometry x="230" y="995" width="30" height="30" as="geometry" />
        </mxCell>
        <mxCell id="_KHkPC-QZNlYdo7Y7j0--70" value="Floating IP" style="text;html=1;align=center;verticalAlign=middle;resizable=0;points=[];autosize=1;strokeColor=none;fillColor=none;" parent="1" vertex="1">
          <mxGeometry x="150" y="995" width="80" height="30" as="geometry" />
        </mxCell>
        <mxCell id="qhFvG6cmTSDnCsx3UZlA-2" value="&lt;font style=&quot;font-size: 34px;&quot;&gt;Prototype V1 Concept&lt;/font&gt;" style="text;html=1;align=center;verticalAlign=middle;resizable=0;points=[];autosize=1;strokeColor=none;fillColor=none;" parent="1" vertex="1">
          <mxGeometry x="-690" y="-160" width="360" height="50" as="geometry" />
        </mxCell>
        <mxCell id="qhFvG6cmTSDnCsx3UZlA-3" value="Guest&lt;br&gt;Instance" style="ellipse;whiteSpace=wrap;html=1;aspect=fixed;" parent="1" vertex="1">
          <mxGeometry x="1496" y="750" width="80" height="80" as="geometry" />
        </mxCell>
        <mxCell id="qhFvG6cmTSDnCsx3UZlA-4" value="Target&lt;br&gt;Instance" style="ellipse;whiteSpace=wrap;html=1;aspect=fixed;" parent="1" vertex="1">
          <mxGeometry x="1712" y="750" width="80" height="80" as="geometry" />
        </mxCell>
        <mxCell id="qhFvG6cmTSDnCsx3UZlA-5" value="Gateway&lt;br&gt;Zeek" style="ellipse;whiteSpace=wrap;html=1;aspect=fixed;" parent="1" vertex="1">
          <mxGeometry x="1910" y="750" width="80" height="80" as="geometry" />
        </mxCell>
        <mxCell id="qhFvG6cmTSDnCsx3UZlA-6" value="NF" style="ellipse;whiteSpace=wrap;html=1;aspect=fixed;" parent="1" vertex="1">
          <mxGeometry x="2132" y="750" width="80" height="80" as="geometry" />
        </mxCell>
        <mxCell id="qhFvG6cmTSDnCsx3UZlA-7" value="Filebeat" style="ellipse;whiteSpace=wrap;html=1;aspect=fixed;" parent="1" vertex="1">
          <mxGeometry x="2022" y="900" width="80" height="80" as="geometry" />
        </mxCell>
        <mxCell id="qhFvG6cmTSDnCsx3UZlA-8" value="Logstash" style="ellipse;whiteSpace=wrap;html=1;aspect=fixed;" parent="1" vertex="1">
          <mxGeometry x="1922" y="1090" width="80" height="80" as="geometry" />
        </mxCell>
        <mxCell id="qhFvG6cmTSDnCsx3UZlA-9" value="Kibana" style="ellipse;whiteSpace=wrap;html=1;aspect=fixed;" parent="1" vertex="1">
          <mxGeometry x="2022" y="1250" width="80" height="80" as="geometry" />
        </mxCell>
        <mxCell id="qhFvG6cmTSDnCsx3UZlA-10" value="Elasticsearch" style="ellipse;whiteSpace=wrap;html=1;aspect=fixed;" parent="1" vertex="1">
          <mxGeometry x="2132" y="1090" width="80" height="80" as="geometry" />
        </mxCell>
        <mxCell id="qhFvG6cmTSDnCsx3UZlA-11" value="" style="shape=link;html=1;rounded=0;entryX=0;entryY=1;entryDx=0;entryDy=0;exitX=1;exitY=0;exitDx=0;exitDy=0;" parent="1" source="qhFvG6cmTSDnCsx3UZlA-7" target="qhFvG6cmTSDnCsx3UZlA-6" edge="1">
          <mxGeometry width="100" relative="1" as="geometry">
            <mxPoint x="2222" y="950" as="sourcePoint" />
            <mxPoint x="2322" y="950" as="targetPoint" />
          </mxGeometry>
        </mxCell>
        <mxCell id="qhFvG6cmTSDnCsx3UZlA-12" value="" style="shape=link;html=1;rounded=0;entryX=0;entryY=0;entryDx=0;entryDy=0;exitX=1;exitY=1;exitDx=0;exitDy=0;" parent="1" source="qhFvG6cmTSDnCsx3UZlA-5" target="qhFvG6cmTSDnCsx3UZlA-7" edge="1">
          <mxGeometry width="100" relative="1" as="geometry">
            <mxPoint x="1842" y="930" as="sourcePoint" />
            <mxPoint x="1942" y="930" as="targetPoint" />
          </mxGeometry>
        </mxCell>
        <mxCell id="qhFvG6cmTSDnCsx3UZlA-13" value="" style="endArrow=none;dashed=1;html=1;dashPattern=1 3;strokeWidth=2;rounded=0;entryX=0;entryY=0.5;entryDx=0;entryDy=0;exitX=1;exitY=0.5;exitDx=0;exitDy=0;" parent="1" source="qhFvG6cmTSDnCsx3UZlA-5" target="qhFvG6cmTSDnCsx3UZlA-6" edge="1">
          <mxGeometry width="50" height="50" relative="1" as="geometry">
            <mxPoint x="2037" y="705" as="sourcePoint" />
            <mxPoint x="2087" y="655" as="targetPoint" />
          </mxGeometry>
        </mxCell>
        <mxCell id="qhFvG6cmTSDnCsx3UZlA-14" value="" style="endArrow=none;dashed=1;html=1;dashPattern=1 3;strokeWidth=2;rounded=0;entryX=0;entryY=0.5;entryDx=0;entryDy=0;exitX=1;exitY=0.5;exitDx=0;exitDy=0;" parent="1" source="qhFvG6cmTSDnCsx3UZlA-4" target="qhFvG6cmTSDnCsx3UZlA-5" edge="1">
          <mxGeometry width="50" height="50" relative="1" as="geometry">
            <mxPoint x="1822" y="920" as="sourcePoint" />
            <mxPoint x="1872" y="870" as="targetPoint" />
          </mxGeometry>
        </mxCell>
        <mxCell id="qhFvG6cmTSDnCsx3UZlA-15" value="" style="endArrow=none;html=1;rounded=0;entryX=1;entryY=0.5;entryDx=0;entryDy=0;exitX=0;exitY=0.5;exitDx=0;exitDy=0;" parent="1" source="qhFvG6cmTSDnCsx3UZlA-4" target="qhFvG6cmTSDnCsx3UZlA-3" edge="1">
          <mxGeometry width="50" height="50" relative="1" as="geometry">
            <mxPoint x="1822" y="1050" as="sourcePoint" />
            <mxPoint x="1872" y="1000" as="targetPoint" />
          </mxGeometry>
        </mxCell>
        <mxCell id="qhFvG6cmTSDnCsx3UZlA-16" value="" style="endArrow=none;html=1;rounded=0;entryX=0;entryY=1;entryDx=0;entryDy=0;exitX=0.5;exitY=0;exitDx=0;exitDy=0;endFill=0;startArrow=classic;startFill=1;" parent="1" source="qhFvG6cmTSDnCsx3UZlA-8" target="qhFvG6cmTSDnCsx3UZlA-7" edge="1">
          <mxGeometry width="50" height="50" relative="1" as="geometry">
            <mxPoint x="1822" y="1050" as="sourcePoint" />
            <mxPoint x="2052" y="990" as="targetPoint" />
          </mxGeometry>
        </mxCell>
        <mxCell id="qhFvG6cmTSDnCsx3UZlA-18" value="" style="endArrow=none;html=1;rounded=0;entryX=1;entryY=1;entryDx=0;entryDy=0;exitX=0.5;exitY=0;exitDx=0;exitDy=0;startArrow=classic;startFill=1;" parent="1" source="qhFvG6cmTSDnCsx3UZlA-10" target="qhFvG6cmTSDnCsx3UZlA-7" edge="1">
          <mxGeometry width="50" height="50" relative="1" as="geometry">
            <mxPoint x="1822" y="1050" as="sourcePoint" />
            <mxPoint x="1872" y="1000" as="targetPoint" />
          </mxGeometry>
        </mxCell>
        <mxCell id="qhFvG6cmTSDnCsx3UZlA-19" value="" style="endArrow=classic;html=1;rounded=0;entryX=0;entryY=0.5;entryDx=0;entryDy=0;exitX=1;exitY=0.5;exitDx=0;exitDy=0;endFill=1;" parent="1" source="qhFvG6cmTSDnCsx3UZlA-8" target="qhFvG6cmTSDnCsx3UZlA-10" edge="1">
          <mxGeometry width="50" height="50" relative="1" as="geometry">
            <mxPoint x="1822" y="1050" as="sourcePoint" />
            <mxPoint x="1872" y="1000" as="targetPoint" />
          </mxGeometry>
        </mxCell>
        <mxCell id="qhFvG6cmTSDnCsx3UZlA-20" value="" style="endArrow=classic;startArrow=classic;html=1;rounded=0;entryX=0.5;entryY=1;entryDx=0;entryDy=0;exitX=1;exitY=0;exitDx=0;exitDy=0;" parent="1" source="qhFvG6cmTSDnCsx3UZlA-9" target="qhFvG6cmTSDnCsx3UZlA-10" edge="1">
          <mxGeometry width="50" height="50" relative="1" as="geometry">
            <mxPoint x="1822" y="1050" as="sourcePoint" />
            <mxPoint x="1872" y="1000" as="targetPoint" />
          </mxGeometry>
        </mxCell>
        <mxCell id="qhFvG6cmTSDnCsx3UZlA-21" value="Simulates host behaviour" style="text;html=1;strokeColor=none;fillColor=none;align=center;verticalAlign=middle;whiteSpace=wrap;rounded=0;" parent="1" vertex="1">
          <mxGeometry x="1697" y="710" width="110" height="30" as="geometry" />
        </mxCell>
        <mxCell id="qhFvG6cmTSDnCsx3UZlA-22" value="Monitoring" style="text;html=1;strokeColor=none;fillColor=none;align=center;verticalAlign=middle;whiteSpace=wrap;rounded=0;" parent="1" vertex="1">
          <mxGeometry x="2132" y="990" width="60" height="30" as="geometry" />
        </mxCell>
        <mxCell id="qhFvG6cmTSDnCsx3UZlA-23" value="Log data" style="text;html=1;align=center;verticalAlign=middle;resizable=0;points=[];autosize=1;strokeColor=none;fillColor=none;" parent="1" vertex="1">
          <mxGeometry x="1920" y="990" width="70" height="30" as="geometry" />
        </mxCell>
        <mxCell id="qhFvG6cmTSDnCsx3UZlA-24" value="Logs" style="text;html=1;strokeColor=none;fillColor=none;align=center;verticalAlign=middle;whiteSpace=wrap;rounded=0;" parent="1" vertex="1">
          <mxGeometry x="2032" y="840" width="60" height="30" as="geometry" />
        </mxCell>
        <mxCell id="qhFvG6cmTSDnCsx3UZlA-25" value="Interacts With Elasticsearch" style="text;html=1;strokeColor=none;fillColor=none;align=center;verticalAlign=middle;whiteSpace=wrap;rounded=0;" parent="1" vertex="1">
          <mxGeometry x="1942" y="1275" width="60" height="30" as="geometry" />
        </mxCell>
        <mxCell id="qhFvG6cmTSDnCsx3UZlA-26" value="Container To interact with target instances" style="text;html=1;strokeColor=none;fillColor=none;align=center;verticalAlign=middle;whiteSpace=wrap;rounded=0;" parent="1" vertex="1">
          <mxGeometry x="1451" y="850" width="170" height="30" as="geometry" />
        </mxCell>
        <mxCell id="qhFvG6cmTSDnCsx3UZlA-28" value="&lt;font style=&quot;font-size: 30px;&quot;&gt;Compose Development&lt;/font&gt;" style="text;html=1;strokeColor=none;fillColor=none;align=center;verticalAlign=middle;whiteSpace=wrap;rounded=0;" parent="1" vertex="1">
          <mxGeometry x="1444" y="965" width="226" height="30" as="geometry" />
        </mxCell>
        <mxCell id="qhFvG6cmTSDnCsx3UZlA-33" value="Target&lt;br&gt;Instance" style="ellipse;whiteSpace=wrap;html=1;aspect=fixed;" parent="1" vertex="1">
          <mxGeometry x="1744" y="1600" width="80" height="80" as="geometry" />
        </mxCell>
        <mxCell id="qhFvG6cmTSDnCsx3UZlA-34" value="Gateway&lt;br&gt;Zeek" style="ellipse;whiteSpace=wrap;html=1;aspect=fixed;" parent="1" vertex="1">
          <mxGeometry x="1942" y="1600" width="80" height="80" as="geometry" />
        </mxCell>
        <mxCell id="qhFvG6cmTSDnCsx3UZlA-35" value="AMF/UPF/&lt;br&gt;..." style="ellipse;whiteSpace=wrap;html=1;aspect=fixed;" parent="1" vertex="1">
          <mxGeometry x="2164" y="1600" width="80" height="80" as="geometry" />
        </mxCell>
        <mxCell id="qhFvG6cmTSDnCsx3UZlA-36" value="Filebeat" style="ellipse;whiteSpace=wrap;html=1;aspect=fixed;" parent="1" vertex="1">
          <mxGeometry x="2054" y="1750" width="80" height="80" as="geometry" />
        </mxCell>
        <mxCell id="qhFvG6cmTSDnCsx3UZlA-37" value="" style="shape=link;html=1;rounded=0;entryX=0;entryY=1;entryDx=0;entryDy=0;exitX=1;exitY=0;exitDx=0;exitDy=0;" parent="1" source="qhFvG6cmTSDnCsx3UZlA-36" target="qhFvG6cmTSDnCsx3UZlA-35" edge="1">
          <mxGeometry width="100" relative="1" as="geometry">
            <mxPoint x="2254" y="1800" as="sourcePoint" />
            <mxPoint x="2354" y="1800" as="targetPoint" />
          </mxGeometry>
        </mxCell>
        <mxCell id="qhFvG6cmTSDnCsx3UZlA-38" value="" style="shape=link;html=1;rounded=0;entryX=0;entryY=0;entryDx=0;entryDy=0;exitX=1;exitY=1;exitDx=0;exitDy=0;" parent="1" source="qhFvG6cmTSDnCsx3UZlA-34" target="qhFvG6cmTSDnCsx3UZlA-36" edge="1">
          <mxGeometry width="100" relative="1" as="geometry">
            <mxPoint x="1874" y="1780" as="sourcePoint" />
            <mxPoint x="1974" y="1780" as="targetPoint" />
          </mxGeometry>
        </mxCell>
        <mxCell id="qhFvG6cmTSDnCsx3UZlA-39" value="" style="endArrow=none;dashed=1;html=1;dashPattern=1 3;strokeWidth=2;rounded=0;entryX=0;entryY=0.5;entryDx=0;entryDy=0;exitX=1;exitY=0.5;exitDx=0;exitDy=0;" parent="1" source="qhFvG6cmTSDnCsx3UZlA-34" target="qhFvG6cmTSDnCsx3UZlA-35" edge="1">
          <mxGeometry width="50" height="50" relative="1" as="geometry">
            <mxPoint x="2069" y="1555" as="sourcePoint" />
            <mxPoint x="2119" y="1505" as="targetPoint" />
          </mxGeometry>
        </mxCell>
        <mxCell id="qhFvG6cmTSDnCsx3UZlA-40" value="" style="endArrow=none;dashed=1;html=1;dashPattern=1 3;strokeWidth=2;rounded=0;entryX=0;entryY=0.5;entryDx=0;entryDy=0;exitX=1;exitY=0.5;exitDx=0;exitDy=0;" parent="1" source="qhFvG6cmTSDnCsx3UZlA-33" target="qhFvG6cmTSDnCsx3UZlA-34" edge="1">
          <mxGeometry width="50" height="50" relative="1" as="geometry">
            <mxPoint x="1854" y="1770" as="sourcePoint" />
            <mxPoint x="1904" y="1720" as="targetPoint" />
          </mxGeometry>
        </mxCell>
        <mxCell id="qhFvG6cmTSDnCsx3UZlA-41" value="Simulates host behaviour" style="text;html=1;strokeColor=none;fillColor=none;align=center;verticalAlign=middle;whiteSpace=wrap;rounded=0;" parent="1" vertex="1">
          <mxGeometry x="1729" y="1560" width="110" height="30" as="geometry" />
        </mxCell>
        <mxCell id="qhFvG6cmTSDnCsx3UZlA-42" value="Logs" style="text;html=1;strokeColor=none;fillColor=none;align=center;verticalAlign=middle;whiteSpace=wrap;rounded=0;" parent="1" vertex="1">
          <mxGeometry x="2064" y="1690" width="60" height="30" as="geometry" />
        </mxCell>
        <mxCell id="qhFvG6cmTSDnCsx3UZlA-45" value="&lt;span style=&quot;font-size: 30px;&quot;&gt;Create for each network function&lt;/span&gt;" style="text;html=1;strokeColor=none;fillColor=none;align=center;verticalAlign=middle;whiteSpace=wrap;rounded=0;" parent="1" vertex="1">
          <mxGeometry x="1473" y="1890" width="226" height="30" as="geometry" />
        </mxCell>
        <mxCell id="qhFvG6cmTSDnCsx3UZlA-46" value="ElasticSearch" style="ellipse;whiteSpace=wrap;html=1;aspect=fixed;" parent="1" vertex="1">
          <mxGeometry x="1794" y="180" width="80" height="80" as="geometry" />
        </mxCell>
        <mxCell id="qhFvG6cmTSDnCsx3UZlA-47" value="Logstash" style="ellipse;whiteSpace=wrap;html=1;aspect=fixed;" parent="1" vertex="1">
          <mxGeometry x="1634" y="180" width="80" height="80" as="geometry" />
        </mxCell>
        <mxCell id="qhFvG6cmTSDnCsx3UZlA-48" value="Kibana" style="ellipse;whiteSpace=wrap;html=1;aspect=fixed;" parent="1" vertex="1">
          <mxGeometry x="1714" y="50" width="80" height="80" as="geometry" />
        </mxCell>
        <mxCell id="qhFvG6cmTSDnCsx3UZlA-50" value="" style="endArrow=classic;startArrow=classic;html=1;rounded=0;exitX=0.5;exitY=0;exitDx=0;exitDy=0;entryX=1;entryY=1;entryDx=0;entryDy=0;" parent="1" source="qhFvG6cmTSDnCsx3UZlA-46" target="qhFvG6cmTSDnCsx3UZlA-48" edge="1">
          <mxGeometry width="50" height="50" relative="1" as="geometry">
            <mxPoint x="1414" y="180" as="sourcePoint" />
            <mxPoint x="1464" y="130" as="targetPoint" />
          </mxGeometry>
        </mxCell>
        <mxCell id="qhFvG6cmTSDnCsx3UZlA-51" value="" style="endArrow=classic;html=1;rounded=0;entryX=0;entryY=0.5;entryDx=0;entryDy=0;exitX=1;exitY=0.5;exitDx=0;exitDy=0;" parent="1" source="qhFvG6cmTSDnCsx3UZlA-47" target="qhFvG6cmTSDnCsx3UZlA-46" edge="1">
          <mxGeometry width="50" height="50" relative="1" as="geometry">
            <mxPoint x="1564" y="300" as="sourcePoint" />
            <mxPoint x="1614" y="250" as="targetPoint" />
          </mxGeometry>
        </mxCell>
        <mxCell id="qhFvG6cmTSDnCsx3UZlA-52" value="" style="ellipse;whiteSpace=wrap;html=1;aspect=fixed;" parent="1" vertex="1">
          <mxGeometry x="1734" y="340" width="40" height="40" as="geometry" />
        </mxCell>
        <mxCell id="qhFvG6cmTSDnCsx3UZlA-53" value="" style="endArrow=none;dashed=1;html=1;dashPattern=1 3;strokeWidth=2;rounded=0;entryX=0.5;entryY=1;entryDx=0;entryDy=0;exitX=1;exitY=0;exitDx=0;exitDy=0;" parent="1" source="qhFvG6cmTSDnCsx3UZlA-52" target="qhFvG6cmTSDnCsx3UZlA-46" edge="1">
          <mxGeometry width="50" height="50" relative="1" as="geometry">
            <mxPoint x="1364" y="380" as="sourcePoint" />
            <mxPoint x="1414" y="330" as="targetPoint" />
          </mxGeometry>
        </mxCell>
        <mxCell id="qhFvG6cmTSDnCsx3UZlA-54" value="" style="endArrow=none;dashed=1;html=1;dashPattern=1 3;strokeWidth=2;rounded=0;exitX=0;exitY=0;exitDx=0;exitDy=0;entryX=0.5;entryY=1;entryDx=0;entryDy=0;" parent="1" source="qhFvG6cmTSDnCsx3UZlA-52" target="qhFvG6cmTSDnCsx3UZlA-47" edge="1">
          <mxGeometry width="50" height="50" relative="1" as="geometry">
            <mxPoint x="1614" y="250" as="sourcePoint" />
            <mxPoint x="1664" y="200" as="targetPoint" />
          </mxGeometry>
        </mxCell>
        <mxCell id="qhFvG6cmTSDnCsx3UZlA-55" value="&lt;font style=&quot;font-size: 18px;&quot;&gt;Host&lt;/font&gt;" style="text;html=1;strokeColor=none;fillColor=none;align=center;verticalAlign=middle;whiteSpace=wrap;rounded=0;" parent="1" vertex="1">
          <mxGeometry x="1594" y="65" width="60" height="30" as="geometry" />
        </mxCell>
        <mxCell id="qhFvG6cmTSDnCsx3UZlA-57" value="" style="shape=link;html=1;rounded=0;" parent="1" edge="1">
          <mxGeometry width="100" relative="1" as="geometry">
            <mxPoint x="1464" y="420" as="sourcePoint" />
            <mxPoint x="2534" y="420" as="targetPoint" />
          </mxGeometry>
        </mxCell>
        <mxCell id="qhFvG6cmTSDnCsx3UZlA-58" value="Bridge Adapter" style="text;html=1;align=center;verticalAlign=middle;resizable=0;points=[];autosize=1;strokeColor=none;fillColor=none;" parent="1" vertex="1">
          <mxGeometry x="2044" y="450" width="100" height="30" as="geometry" />
        </mxCell>
        <mxCell id="qhFvG6cmTSDnCsx3UZlA-59" value="" style="endArrow=none;html=1;rounded=0;entryX=0.5;entryY=1;entryDx=0;entryDy=0;" parent="1" target="qhFvG6cmTSDnCsx3UZlA-52" edge="1">
          <mxGeometry width="50" height="50" relative="1" as="geometry">
            <mxPoint x="1754" y="420" as="sourcePoint" />
            <mxPoint x="1754" y="520" as="targetPoint" />
          </mxGeometry>
        </mxCell>
        <mxCell id="qhFvG6cmTSDnCsx3UZlA-61" value="" style="rhombus;whiteSpace=wrap;html=1;" parent="1" vertex="1">
          <mxGeometry x="2294" y="220" width="40" height="40" as="geometry" />
        </mxCell>
        <mxCell id="qhFvG6cmTSDnCsx3UZlA-62" value="Router" style="text;html=1;align=center;verticalAlign=middle;resizable=0;points=[];autosize=1;strokeColor=none;fillColor=none;" parent="1" vertex="1">
          <mxGeometry x="2354" y="225" width="60" height="30" as="geometry" />
        </mxCell>
        <mxCell id="qhFvG6cmTSDnCsx3UZlA-63" value="" style="endArrow=none;html=1;rounded=0;exitX=0.5;exitY=0;exitDx=0;exitDy=0;" parent="1" source="qhFvG6cmTSDnCsx3UZlA-61" edge="1">
          <mxGeometry width="50" height="50" relative="1" as="geometry">
            <mxPoint x="2304" y="190" as="sourcePoint" />
            <mxPoint x="2314" y="140" as="targetPoint" />
          </mxGeometry>
        </mxCell>
        <mxCell id="qhFvG6cmTSDnCsx3UZlA-64" value="" style="endArrow=none;html=1;rounded=0;" parent="1" source="qhFvG6cmTSDnCsx3UZlA-69" edge="1">
          <mxGeometry width="50" height="50" relative="1" as="geometry">
            <mxPoint x="2144" y="140" as="sourcePoint" />
            <mxPoint x="2504" y="140" as="targetPoint" />
          </mxGeometry>
        </mxCell>
        <mxCell id="qhFvG6cmTSDnCsx3UZlA-67" value="Router Interface" style="text;html=1;align=center;verticalAlign=middle;resizable=0;points=[];autosize=1;strokeColor=none;fillColor=none;" parent="1" vertex="1">
          <mxGeometry x="2089" y="160" width="110" height="30" as="geometry" />
        </mxCell>
        <mxCell id="qhFvG6cmTSDnCsx3UZlA-70" value="" style="endArrow=none;html=1;rounded=0;" parent="1" target="qhFvG6cmTSDnCsx3UZlA-69" edge="1">
          <mxGeometry width="50" height="50" relative="1" as="geometry">
            <mxPoint x="2144" y="140" as="sourcePoint" />
            <mxPoint x="2504" y="140" as="targetPoint" />
          </mxGeometry>
        </mxCell>
        <mxCell id="qhFvG6cmTSDnCsx3UZlA-69" value="" style="whiteSpace=wrap;html=1;aspect=fixed;" parent="1" vertex="1">
          <mxGeometry x="2224" y="130" width="20" height="20" as="geometry" />
        </mxCell>
        <mxCell id="qhFvG6cmTSDnCsx3UZlA-71" value="" style="whiteSpace=wrap;html=1;aspect=fixed;" parent="1" vertex="1">
          <mxGeometry x="2486" y="130" width="20" height="20" as="geometry" />
        </mxCell>
        <mxCell id="qhFvG6cmTSDnCsx3UZlA-66" value="" style="whiteSpace=wrap;html=1;aspect=fixed;" parent="1" vertex="1">
          <mxGeometry x="2134" y="130" width="20" height="20" as="geometry" />
        </mxCell>
        <mxCell id="qhFvG6cmTSDnCsx3UZlA-72" value="VDU" style="shape=cube;whiteSpace=wrap;html=1;boundedLbl=1;backgroundOutline=1;darkOpacity=0.05;darkOpacity2=0.1;size=8;" parent="1" vertex="1">
          <mxGeometry x="2564" y="20" width="120" height="80" as="geometry" />
        </mxCell>
        <mxCell id="qhFvG6cmTSDnCsx3UZlA-73" value="" style="endArrow=none;dashed=1;html=1;dashPattern=1 3;strokeWidth=2;rounded=0;" parent="1" edge="1">
          <mxGeometry width="50" height="50" relative="1" as="geometry">
            <mxPoint x="2494" y="130" as="sourcePoint" />
            <mxPoint x="2494" y="-130" as="targetPoint" />
          </mxGeometry>
        </mxCell>
        <mxCell id="qhFvG6cmTSDnCsx3UZlA-74" value="" style="endArrow=none;dashed=1;html=1;dashPattern=1 3;strokeWidth=2;rounded=0;" parent="1" edge="1">
          <mxGeometry width="50" height="50" relative="1" as="geometry">
            <mxPoint x="2506" y="130" as="sourcePoint" />
            <mxPoint x="2506" y="-130" as="targetPoint" />
          </mxGeometry>
        </mxCell>
        <mxCell id="qhFvG6cmTSDnCsx3UZlA-75" value="" style="shape=process;whiteSpace=wrap;html=1;backgroundOutline=1;" parent="1" vertex="1">
          <mxGeometry x="2494" y="60" width="80" height="10" as="geometry" />
        </mxCell>
        <mxCell id="qhFvG6cmTSDnCsx3UZlA-76" value="VDU" style="shape=cube;whiteSpace=wrap;html=1;boundedLbl=1;backgroundOutline=1;darkOpacity=0.05;darkOpacity2=0.1;size=8;" parent="1" vertex="1">
          <mxGeometry x="2564" y="-170" width="120" height="80" as="geometry" />
        </mxCell>
        <mxCell id="qhFvG6cmTSDnCsx3UZlA-77" value="" style="shape=process;whiteSpace=wrap;html=1;backgroundOutline=1;" parent="1" vertex="1">
          <mxGeometry x="2494" y="-130" width="80" height="10" as="geometry" />
        </mxCell>
        <mxCell id="qhFvG6cmTSDnCsx3UZlA-79" value="" style="ellipse;whiteSpace=wrap;html=1;aspect=fixed;" parent="1" vertex="1">
          <mxGeometry x="2294" y="340" width="40" height="40" as="geometry" />
        </mxCell>
        <mxCell id="qhFvG6cmTSDnCsx3UZlA-80" value="" style="endArrow=none;html=1;rounded=0;entryX=0.5;entryY=1;entryDx=0;entryDy=0;" parent="1" target="qhFvG6cmTSDnCsx3UZlA-79" edge="1">
          <mxGeometry width="50" height="50" relative="1" as="geometry">
            <mxPoint x="2314" y="420" as="sourcePoint" />
            <mxPoint x="2194" y="240" as="targetPoint" />
          </mxGeometry>
        </mxCell>
        <mxCell id="qhFvG6cmTSDnCsx3UZlA-81" value="" style="endArrow=none;dashed=1;html=1;dashPattern=1 3;strokeWidth=2;rounded=0;entryX=0.5;entryY=1;entryDx=0;entryDy=0;exitX=0.5;exitY=0;exitDx=0;exitDy=0;" parent="1" source="qhFvG6cmTSDnCsx3UZlA-79" target="qhFvG6cmTSDnCsx3UZlA-61" edge="1">
          <mxGeometry width="50" height="50" relative="1" as="geometry">
            <mxPoint x="2294" y="330" as="sourcePoint" />
            <mxPoint x="2344" y="280" as="targetPoint" />
          </mxGeometry>
        </mxCell>
        <mxCell id="qhFvG6cmTSDnCsx3UZlA-82" value="&lt;font style=&quot;font-size: 18px;&quot;&gt;VM Running Openstack&lt;/font&gt;" style="text;html=1;align=center;verticalAlign=middle;resizable=0;points=[];autosize=1;strokeColor=none;fillColor=none;" parent="1" vertex="1">
          <mxGeometry x="2074" y="-145" width="210" height="40" as="geometry" />
        </mxCell>
        <mxCell id="qhFvG6cmTSDnCsx3UZlA-83" value="The IP of ELK is that of the host on the physical network" style="text;html=1;align=center;verticalAlign=middle;resizable=0;points=[];autosize=1;strokeColor=none;fillColor=none;" parent="1" vertex="1">
          <mxGeometry x="1594" y="450" width="320" height="30" as="geometry" />
        </mxCell>
        <mxCell id="qhFvG6cmTSDnCsx3UZlA-86" value="&lt;font style=&quot;font-size: 24px;&quot;&gt;ELK bridge from host&lt;/font&gt;" style="text;html=1;align=center;verticalAlign=middle;resizable=0;points=[];autosize=1;strokeColor=none;fillColor=none;" parent="1" vertex="1">
          <mxGeometry x="1444" y="-180" width="250" height="40" as="geometry" />
        </mxCell>
        <mxCell id="DzWVltwdL3yZklEhES8e-1" value="" style="rounded=1;whiteSpace=wrap;html=1;" parent="1" vertex="1">
          <mxGeometry x="-760" y="-1169" width="3400" height="780" as="geometry" />
        </mxCell>
        <mxCell id="DzWVltwdL3yZklEhES8e-2" value="" style="rounded=1;whiteSpace=wrap;html=1;" parent="1" vertex="1">
          <mxGeometry x="-50" y="-1099" width="720" height="570" as="geometry" />
        </mxCell>
        <mxCell id="DzWVltwdL3yZklEhES8e-3" value="" style="rounded=1;whiteSpace=wrap;html=1;" parent="1" vertex="1">
          <mxGeometry x="-545" y="-869" width="430" height="340" as="geometry" />
        </mxCell>
        <mxCell id="DzWVltwdL3yZklEhES8e-4" value="ElasticSearch" style="ellipse;whiteSpace=wrap;html=1;aspect=fixed;" parent="1" vertex="1">
          <mxGeometry x="-290" y="-709" width="80" height="80" as="geometry" />
        </mxCell>
        <mxCell id="DzWVltwdL3yZklEhES8e-5" value="Logstash" style="ellipse;whiteSpace=wrap;html=1;aspect=fixed;" parent="1" vertex="1">
          <mxGeometry x="-450" y="-709" width="80" height="80" as="geometry" />
        </mxCell>
        <mxCell id="DzWVltwdL3yZklEhES8e-6" value="Kibana" style="ellipse;whiteSpace=wrap;html=1;aspect=fixed;" parent="1" vertex="1">
          <mxGeometry x="-370" y="-839" width="80" height="80" as="geometry" />
        </mxCell>
        <mxCell id="DzWVltwdL3yZklEhES8e-7" value="" style="endArrow=classic;startArrow=classic;html=1;rounded=0;exitX=0.5;exitY=0;exitDx=0;exitDy=0;entryX=1;entryY=1;entryDx=0;entryDy=0;" parent="1" source="DzWVltwdL3yZklEhES8e-4" target="DzWVltwdL3yZklEhES8e-6" edge="1">
          <mxGeometry width="50" height="50" relative="1" as="geometry">
            <mxPoint x="-670" y="-709" as="sourcePoint" />
            <mxPoint x="-620" y="-759" as="targetPoint" />
          </mxGeometry>
        </mxCell>
        <mxCell id="DzWVltwdL3yZklEhES8e-8" value="" style="endArrow=classic;html=1;rounded=0;entryX=0;entryY=0.5;entryDx=0;entryDy=0;exitX=1;exitY=0.5;exitDx=0;exitDy=0;" parent="1" source="DzWVltwdL3yZklEhES8e-5" target="DzWVltwdL3yZklEhES8e-4" edge="1">
          <mxGeometry width="50" height="50" relative="1" as="geometry">
            <mxPoint x="-520" y="-589" as="sourcePoint" />
            <mxPoint x="-470" y="-639" as="targetPoint" />
          </mxGeometry>
        </mxCell>
        <mxCell id="DzWVltwdL3yZklEhES8e-9" value="" style="ellipse;whiteSpace=wrap;html=1;aspect=fixed;" parent="1" vertex="1">
          <mxGeometry x="-350" y="-549" width="40" height="40" as="geometry" />
        </mxCell>
        <mxCell id="DzWVltwdL3yZklEhES8e-10" value="" style="endArrow=none;dashed=1;html=1;dashPattern=1 3;strokeWidth=2;rounded=0;entryX=0.5;entryY=1;entryDx=0;entryDy=0;exitX=1;exitY=0;exitDx=0;exitDy=0;" parent="1" source="DzWVltwdL3yZklEhES8e-9" target="DzWVltwdL3yZklEhES8e-4" edge="1">
          <mxGeometry width="50" height="50" relative="1" as="geometry">
            <mxPoint x="-720" y="-509" as="sourcePoint" />
            <mxPoint x="-670" y="-559" as="targetPoint" />
          </mxGeometry>
        </mxCell>
        <mxCell id="DzWVltwdL3yZklEhES8e-11" value="" style="endArrow=none;dashed=1;html=1;dashPattern=1 3;strokeWidth=2;rounded=0;exitX=0;exitY=0;exitDx=0;exitDy=0;entryX=0.5;entryY=1;entryDx=0;entryDy=0;" parent="1" source="DzWVltwdL3yZklEhES8e-9" target="DzWVltwdL3yZklEhES8e-5" edge="1">
          <mxGeometry width="50" height="50" relative="1" as="geometry">
            <mxPoint x="-470" y="-639" as="sourcePoint" />
            <mxPoint x="-420" y="-689" as="targetPoint" />
          </mxGeometry>
        </mxCell>
        <mxCell id="DzWVltwdL3yZklEhES8e-12" value="&lt;font style=&quot;font-size: 18px;&quot;&gt;ELK Host&lt;/font&gt;" style="text;html=1;strokeColor=none;fillColor=none;align=center;verticalAlign=middle;whiteSpace=wrap;rounded=0;" parent="1" vertex="1">
          <mxGeometry x="-490" y="-824" width="60" height="30" as="geometry" />
        </mxCell>
        <mxCell id="DzWVltwdL3yZklEhES8e-13" value="" style="shape=link;html=1;rounded=0;" parent="1" edge="1">
          <mxGeometry width="100" relative="1" as="geometry">
            <mxPoint x="-620" y="-469" as="sourcePoint" />
            <mxPoint x="2540" y="-469" as="targetPoint" />
          </mxGeometry>
        </mxCell>
        <mxCell id="DzWVltwdL3yZklEhES8e-14" value="Physical Network" style="text;html=1;align=center;verticalAlign=middle;resizable=0;points=[];autosize=1;strokeColor=none;fillColor=none;" parent="1" vertex="1">
          <mxGeometry x="1179" y="-419" width="120" height="30" as="geometry" />
        </mxCell>
        <mxCell id="DzWVltwdL3yZklEhES8e-15" value="" style="endArrow=none;html=1;rounded=0;entryX=0.5;entryY=1;entryDx=0;entryDy=0;" parent="1" target="DzWVltwdL3yZklEhES8e-9" edge="1">
          <mxGeometry width="50" height="50" relative="1" as="geometry">
            <mxPoint x="-330" y="-469" as="sourcePoint" />
            <mxPoint x="-330" y="-369" as="targetPoint" />
          </mxGeometry>
        </mxCell>
        <mxCell id="DzWVltwdL3yZklEhES8e-16" value="" style="rhombus;whiteSpace=wrap;html=1;" parent="1" vertex="1">
          <mxGeometry x="210" y="-669" width="40" height="40" as="geometry" />
        </mxCell>
        <mxCell id="DzWVltwdL3yZklEhES8e-17" value="Router" style="text;html=1;align=center;verticalAlign=middle;resizable=0;points=[];autosize=1;strokeColor=none;fillColor=none;" parent="1" vertex="1">
          <mxGeometry x="270" y="-664" width="60" height="30" as="geometry" />
        </mxCell>
        <mxCell id="DzWVltwdL3yZklEhES8e-18" value="" style="endArrow=none;html=1;rounded=0;exitX=0.5;exitY=0;exitDx=0;exitDy=0;" parent="1" source="DzWVltwdL3yZklEhES8e-16" edge="1">
          <mxGeometry width="50" height="50" relative="1" as="geometry">
            <mxPoint x="220" y="-699" as="sourcePoint" />
            <mxPoint x="230" y="-749" as="targetPoint" />
          </mxGeometry>
        </mxCell>
        <mxCell id="DzWVltwdL3yZklEhES8e-19" value="" style="endArrow=none;html=1;rounded=0;" parent="1" source="DzWVltwdL3yZklEhES8e-22" edge="1">
          <mxGeometry width="50" height="50" relative="1" as="geometry">
            <mxPoint x="60" y="-749" as="sourcePoint" />
            <mxPoint x="420" y="-749" as="targetPoint" />
          </mxGeometry>
        </mxCell>
        <mxCell id="DzWVltwdL3yZklEhES8e-20" value="Router Interface" style="text;html=1;align=center;verticalAlign=middle;resizable=0;points=[];autosize=1;strokeColor=none;fillColor=none;" parent="1" vertex="1">
          <mxGeometry x="5" y="-729" width="110" height="30" as="geometry" />
        </mxCell>
        <mxCell id="DzWVltwdL3yZklEhES8e-21" value="" style="endArrow=none;html=1;rounded=0;" parent="1" target="DzWVltwdL3yZklEhES8e-22" edge="1">
          <mxGeometry width="50" height="50" relative="1" as="geometry">
            <mxPoint x="60" y="-749" as="sourcePoint" />
            <mxPoint x="420" y="-749" as="targetPoint" />
          </mxGeometry>
        </mxCell>
        <mxCell id="DzWVltwdL3yZklEhES8e-22" value="" style="whiteSpace=wrap;html=1;aspect=fixed;" parent="1" vertex="1">
          <mxGeometry x="140" y="-759" width="20" height="20" as="geometry" />
        </mxCell>
        <mxCell id="DzWVltwdL3yZklEhES8e-23" value="" style="whiteSpace=wrap;html=1;aspect=fixed;" parent="1" vertex="1">
          <mxGeometry x="402" y="-759" width="20" height="20" as="geometry" />
        </mxCell>
        <mxCell id="DzWVltwdL3yZklEhES8e-24" value="" style="whiteSpace=wrap;html=1;aspect=fixed;" parent="1" vertex="1">
          <mxGeometry x="50" y="-759" width="20" height="20" as="geometry" />
        </mxCell>
        <mxCell id="DzWVltwdL3yZklEhES8e-25" value="VDU" style="shape=cube;whiteSpace=wrap;html=1;boundedLbl=1;backgroundOutline=1;darkOpacity=0.05;darkOpacity2=0.1;size=8;" parent="1" vertex="1">
          <mxGeometry x="480" y="-869" width="120" height="80" as="geometry" />
        </mxCell>
        <mxCell id="DzWVltwdL3yZklEhES8e-26" value="" style="endArrow=none;dashed=1;html=1;dashPattern=1 3;strokeWidth=2;rounded=0;" parent="1" edge="1">
          <mxGeometry width="50" height="50" relative="1" as="geometry">
            <mxPoint x="410" y="-759" as="sourcePoint" />
            <mxPoint x="410" y="-1019" as="targetPoint" />
          </mxGeometry>
        </mxCell>
        <mxCell id="DzWVltwdL3yZklEhES8e-27" value="" style="endArrow=none;dashed=1;html=1;dashPattern=1 3;strokeWidth=2;rounded=0;" parent="1" edge="1">
          <mxGeometry width="50" height="50" relative="1" as="geometry">
            <mxPoint x="422" y="-759" as="sourcePoint" />
            <mxPoint x="422" y="-1019" as="targetPoint" />
          </mxGeometry>
        </mxCell>
        <mxCell id="DzWVltwdL3yZklEhES8e-28" value="" style="shape=process;whiteSpace=wrap;html=1;backgroundOutline=1;" parent="1" vertex="1">
          <mxGeometry x="410" y="-829" width="80" height="10" as="geometry" />
        </mxCell>
        <mxCell id="DzWVltwdL3yZklEhES8e-29" value="VDU" style="shape=cube;whiteSpace=wrap;html=1;boundedLbl=1;backgroundOutline=1;darkOpacity=0.05;darkOpacity2=0.1;size=8;" parent="1" vertex="1">
          <mxGeometry x="480" y="-1059" width="120" height="80" as="geometry" />
        </mxCell>
        <mxCell id="DzWVltwdL3yZklEhES8e-30" value="" style="shape=process;whiteSpace=wrap;html=1;backgroundOutline=1;" parent="1" vertex="1">
          <mxGeometry x="410" y="-1019" width="80" height="10" as="geometry" />
        </mxCell>
        <mxCell id="DzWVltwdL3yZklEhES8e-31" value="" style="ellipse;whiteSpace=wrap;html=1;aspect=fixed;" parent="1" vertex="1">
          <mxGeometry x="210" y="-549" width="40" height="40" as="geometry" />
        </mxCell>
        <mxCell id="DzWVltwdL3yZklEhES8e-32" value="" style="endArrow=none;html=1;rounded=0;entryX=0.5;entryY=1;entryDx=0;entryDy=0;" parent="1" target="DzWVltwdL3yZklEhES8e-31" edge="1">
          <mxGeometry width="50" height="50" relative="1" as="geometry">
            <mxPoint x="230" y="-469" as="sourcePoint" />
            <mxPoint x="110" y="-649" as="targetPoint" />
          </mxGeometry>
        </mxCell>
        <mxCell id="DzWVltwdL3yZklEhES8e-33" value="" style="endArrow=none;dashed=1;html=1;dashPattern=1 3;strokeWidth=2;rounded=0;entryX=0.5;entryY=1;entryDx=0;entryDy=0;exitX=0.5;exitY=0;exitDx=0;exitDy=0;" parent="1" source="DzWVltwdL3yZklEhES8e-31" target="DzWVltwdL3yZklEhES8e-16" edge="1">
          <mxGeometry width="50" height="50" relative="1" as="geometry">
            <mxPoint x="210" y="-559" as="sourcePoint" />
            <mxPoint x="260" y="-609" as="targetPoint" />
          </mxGeometry>
        </mxCell>
        <mxCell id="DzWVltwdL3yZklEhES8e-34" value="&lt;font style=&quot;font-size: 18px;&quot;&gt;VM Running Openstack&lt;/font&gt;" style="text;html=1;align=center;verticalAlign=middle;resizable=0;points=[];autosize=1;strokeColor=none;fillColor=none;" parent="1" vertex="1">
          <mxGeometry x="-10" y="-1034" width="210" height="40" as="geometry" />
        </mxCell>
        <mxCell id="DzWVltwdL3yZklEhES8e-35" value="The IP of ELK is that of the host on the physical network" style="text;html=1;align=center;verticalAlign=middle;resizable=0;points=[];autosize=1;strokeColor=none;fillColor=none;" parent="1" vertex="1">
          <mxGeometry x="-490" y="-439" width="320" height="30" as="geometry" />
        </mxCell>
        <mxCell id="DzWVltwdL3yZklEhES8e-36" value="&lt;font style=&quot;font-size: 24px;&quot;&gt;ELK bridge from host&lt;/font&gt;" style="text;html=1;align=center;verticalAlign=middle;resizable=0;points=[];autosize=1;strokeColor=none;fillColor=none;" parent="1" vertex="1">
          <mxGeometry x="-640" y="-1069" width="250" height="40" as="geometry" />
        </mxCell>
        <mxCell id="DzWVltwdL3yZklEhES8e-37" value="Modify Host IP tables" style="text;html=1;align=center;verticalAlign=middle;resizable=0;points=[];autosize=1;strokeColor=none;fillColor=none;" parent="1" vertex="1">
          <mxGeometry x="290" y="-579" width="140" height="30" as="geometry" />
        </mxCell>
        <mxCell id="DzWVltwdL3yZklEhES8e-38" value="Modify Firewall" style="text;html=1;align=center;verticalAlign=middle;resizable=0;points=[];autosize=1;strokeColor=none;fillColor=none;" parent="1" vertex="1">
          <mxGeometry x="310" y="-599" width="100" height="30" as="geometry" />
        </mxCell>
        <mxCell id="DzWVltwdL3yZklEhES8e-81" value="" style="rounded=1;whiteSpace=wrap;html=1;" parent="1" vertex="1">
          <mxGeometry x="900" y="-1099" width="720" height="570" as="geometry" />
        </mxCell>
        <mxCell id="DzWVltwdL3yZklEhES8e-82" value="" style="rhombus;whiteSpace=wrap;html=1;" parent="1" vertex="1">
          <mxGeometry x="1160" y="-669" width="40" height="40" as="geometry" />
        </mxCell>
        <mxCell id="DzWVltwdL3yZklEhES8e-83" value="Router" style="text;html=1;align=center;verticalAlign=middle;resizable=0;points=[];autosize=1;strokeColor=none;fillColor=none;" parent="1" vertex="1">
          <mxGeometry x="1220" y="-664" width="60" height="30" as="geometry" />
        </mxCell>
        <mxCell id="DzWVltwdL3yZklEhES8e-84" value="" style="endArrow=none;html=1;rounded=0;exitX=0.5;exitY=0;exitDx=0;exitDy=0;" parent="1" source="DzWVltwdL3yZklEhES8e-82" edge="1">
          <mxGeometry width="50" height="50" relative="1" as="geometry">
            <mxPoint x="1170" y="-699" as="sourcePoint" />
            <mxPoint x="1180" y="-749" as="targetPoint" />
          </mxGeometry>
        </mxCell>
        <mxCell id="DzWVltwdL3yZklEhES8e-85" value="" style="endArrow=none;html=1;rounded=0;" parent="1" source="DzWVltwdL3yZklEhES8e-88" edge="1">
          <mxGeometry width="50" height="50" relative="1" as="geometry">
            <mxPoint x="1010" y="-749" as="sourcePoint" />
            <mxPoint x="1370" y="-749" as="targetPoint" />
          </mxGeometry>
        </mxCell>
        <mxCell id="DzWVltwdL3yZklEhES8e-86" value="Router Interface" style="text;html=1;align=center;verticalAlign=middle;resizable=0;points=[];autosize=1;strokeColor=none;fillColor=none;" parent="1" vertex="1">
          <mxGeometry x="955" y="-729" width="110" height="30" as="geometry" />
        </mxCell>
        <mxCell id="DzWVltwdL3yZklEhES8e-87" value="" style="endArrow=none;html=1;rounded=0;" parent="1" target="DzWVltwdL3yZklEhES8e-88" edge="1">
          <mxGeometry width="50" height="50" relative="1" as="geometry">
            <mxPoint x="1010" y="-749" as="sourcePoint" />
            <mxPoint x="1370" y="-749" as="targetPoint" />
          </mxGeometry>
        </mxCell>
        <mxCell id="DzWVltwdL3yZklEhES8e-88" value="" style="whiteSpace=wrap;html=1;aspect=fixed;" parent="1" vertex="1">
          <mxGeometry x="1090" y="-759" width="20" height="20" as="geometry" />
        </mxCell>
        <mxCell id="DzWVltwdL3yZklEhES8e-89" value="" style="whiteSpace=wrap;html=1;aspect=fixed;" parent="1" vertex="1">
          <mxGeometry x="1352" y="-759" width="20" height="20" as="geometry" />
        </mxCell>
        <mxCell id="DzWVltwdL3yZklEhES8e-90" value="" style="whiteSpace=wrap;html=1;aspect=fixed;" parent="1" vertex="1">
          <mxGeometry x="1000" y="-759" width="20" height="20" as="geometry" />
        </mxCell>
        <mxCell id="DzWVltwdL3yZklEhES8e-91" value="VDU" style="shape=cube;whiteSpace=wrap;html=1;boundedLbl=1;backgroundOutline=1;darkOpacity=0.05;darkOpacity2=0.1;size=8;" parent="1" vertex="1">
          <mxGeometry x="1430" y="-869" width="120" height="80" as="geometry" />
        </mxCell>
        <mxCell id="DzWVltwdL3yZklEhES8e-92" value="" style="endArrow=none;dashed=1;html=1;dashPattern=1 3;strokeWidth=2;rounded=0;" parent="1" edge="1">
          <mxGeometry width="50" height="50" relative="1" as="geometry">
            <mxPoint x="1360" y="-759" as="sourcePoint" />
            <mxPoint x="1360" y="-1019" as="targetPoint" />
          </mxGeometry>
        </mxCell>
        <mxCell id="DzWVltwdL3yZklEhES8e-93" value="" style="endArrow=none;dashed=1;html=1;dashPattern=1 3;strokeWidth=2;rounded=0;" parent="1" edge="1">
          <mxGeometry width="50" height="50" relative="1" as="geometry">
            <mxPoint x="1372" y="-759" as="sourcePoint" />
            <mxPoint x="1372" y="-1019" as="targetPoint" />
          </mxGeometry>
        </mxCell>
        <mxCell id="DzWVltwdL3yZklEhES8e-94" value="" style="shape=process;whiteSpace=wrap;html=1;backgroundOutline=1;" parent="1" vertex="1">
          <mxGeometry x="1360" y="-829" width="80" height="10" as="geometry" />
        </mxCell>
        <mxCell id="DzWVltwdL3yZklEhES8e-95" value="VDU" style="shape=cube;whiteSpace=wrap;html=1;boundedLbl=1;backgroundOutline=1;darkOpacity=0.05;darkOpacity2=0.1;size=8;" parent="1" vertex="1">
          <mxGeometry x="1430" y="-1059" width="120" height="80" as="geometry" />
        </mxCell>
        <mxCell id="DzWVltwdL3yZklEhES8e-96" value="" style="shape=process;whiteSpace=wrap;html=1;backgroundOutline=1;" parent="1" vertex="1">
          <mxGeometry x="1360" y="-1019" width="80" height="10" as="geometry" />
        </mxCell>
        <mxCell id="DzWVltwdL3yZklEhES8e-97" value="" style="ellipse;whiteSpace=wrap;html=1;aspect=fixed;" parent="1" vertex="1">
          <mxGeometry x="1160" y="-549" width="40" height="40" as="geometry" />
        </mxCell>
        <mxCell id="DzWVltwdL3yZklEhES8e-98" value="" style="endArrow=none;dashed=1;html=1;dashPattern=1 3;strokeWidth=2;rounded=0;entryX=0.5;entryY=1;entryDx=0;entryDy=0;exitX=0.5;exitY=0;exitDx=0;exitDy=0;" parent="1" source="DzWVltwdL3yZklEhES8e-97" target="DzWVltwdL3yZklEhES8e-82" edge="1">
          <mxGeometry width="50" height="50" relative="1" as="geometry">
            <mxPoint x="1160" y="-559" as="sourcePoint" />
            <mxPoint x="1210" y="-609" as="targetPoint" />
          </mxGeometry>
        </mxCell>
        <mxCell id="DzWVltwdL3yZklEhES8e-99" value="&lt;font style=&quot;font-size: 18px;&quot;&gt;VM Running Openstack&lt;/font&gt;" style="text;html=1;align=center;verticalAlign=middle;resizable=0;points=[];autosize=1;strokeColor=none;fillColor=none;" parent="1" vertex="1">
          <mxGeometry x="940" y="-1034" width="210" height="40" as="geometry" />
        </mxCell>
        <mxCell id="DzWVltwdL3yZklEhES8e-100" value="Modify Host IP tables" style="text;html=1;align=center;verticalAlign=middle;resizable=0;points=[];autosize=1;strokeColor=none;fillColor=none;" parent="1" vertex="1">
          <mxGeometry x="1240" y="-579" width="140" height="30" as="geometry" />
        </mxCell>
        <mxCell id="DzWVltwdL3yZklEhES8e-101" value="Modify Firewall" style="text;html=1;align=center;verticalAlign=middle;resizable=0;points=[];autosize=1;strokeColor=none;fillColor=none;" parent="1" vertex="1">
          <mxGeometry x="1260" y="-599" width="100" height="30" as="geometry" />
        </mxCell>
        <mxCell id="DzWVltwdL3yZklEhES8e-102" value="" style="rounded=1;whiteSpace=wrap;html=1;" parent="1" vertex="1">
          <mxGeometry x="1790" y="-1099" width="720" height="570" as="geometry" />
        </mxCell>
        <mxCell id="DzWVltwdL3yZklEhES8e-103" value="" style="rhombus;whiteSpace=wrap;html=1;" parent="1" vertex="1">
          <mxGeometry x="2050" y="-669" width="40" height="40" as="geometry" />
        </mxCell>
        <mxCell id="DzWVltwdL3yZklEhES8e-104" value="Router" style="text;html=1;align=center;verticalAlign=middle;resizable=0;points=[];autosize=1;strokeColor=none;fillColor=none;" parent="1" vertex="1">
          <mxGeometry x="2110" y="-664" width="60" height="30" as="geometry" />
        </mxCell>
        <mxCell id="DzWVltwdL3yZklEhES8e-105" value="" style="endArrow=none;html=1;rounded=0;exitX=0.5;exitY=0;exitDx=0;exitDy=0;" parent="1" source="DzWVltwdL3yZklEhES8e-103" edge="1">
          <mxGeometry width="50" height="50" relative="1" as="geometry">
            <mxPoint x="2060" y="-699" as="sourcePoint" />
            <mxPoint x="2070" y="-749" as="targetPoint" />
          </mxGeometry>
        </mxCell>
        <mxCell id="DzWVltwdL3yZklEhES8e-106" value="" style="endArrow=none;html=1;rounded=0;" parent="1" source="DzWVltwdL3yZklEhES8e-109" edge="1">
          <mxGeometry width="50" height="50" relative="1" as="geometry">
            <mxPoint x="1900" y="-749" as="sourcePoint" />
            <mxPoint x="2260" y="-749" as="targetPoint" />
          </mxGeometry>
        </mxCell>
        <mxCell id="DzWVltwdL3yZklEhES8e-107" value="Router Interface" style="text;html=1;align=center;verticalAlign=middle;resizable=0;points=[];autosize=1;strokeColor=none;fillColor=none;" parent="1" vertex="1">
          <mxGeometry x="1845" y="-729" width="110" height="30" as="geometry" />
        </mxCell>
        <mxCell id="DzWVltwdL3yZklEhES8e-108" value="" style="endArrow=none;html=1;rounded=0;" parent="1" target="DzWVltwdL3yZklEhES8e-109" edge="1">
          <mxGeometry width="50" height="50" relative="1" as="geometry">
            <mxPoint x="1900" y="-749" as="sourcePoint" />
            <mxPoint x="2260" y="-749" as="targetPoint" />
          </mxGeometry>
        </mxCell>
        <mxCell id="DzWVltwdL3yZklEhES8e-109" value="" style="whiteSpace=wrap;html=1;aspect=fixed;" parent="1" vertex="1">
          <mxGeometry x="1980" y="-759" width="20" height="20" as="geometry" />
        </mxCell>
        <mxCell id="DzWVltwdL3yZklEhES8e-110" value="" style="whiteSpace=wrap;html=1;aspect=fixed;" parent="1" vertex="1">
          <mxGeometry x="2242" y="-759" width="20" height="20" as="geometry" />
        </mxCell>
        <mxCell id="DzWVltwdL3yZklEhES8e-111" value="" style="whiteSpace=wrap;html=1;aspect=fixed;" parent="1" vertex="1">
          <mxGeometry x="1890" y="-759" width="20" height="20" as="geometry" />
        </mxCell>
        <mxCell id="DzWVltwdL3yZklEhES8e-112" value="VDU" style="shape=cube;whiteSpace=wrap;html=1;boundedLbl=1;backgroundOutline=1;darkOpacity=0.05;darkOpacity2=0.1;size=8;" parent="1" vertex="1">
          <mxGeometry x="2320" y="-869" width="120" height="80" as="geometry" />
        </mxCell>
        <mxCell id="DzWVltwdL3yZklEhES8e-113" value="" style="endArrow=none;dashed=1;html=1;dashPattern=1 3;strokeWidth=2;rounded=0;" parent="1" edge="1">
          <mxGeometry width="50" height="50" relative="1" as="geometry">
            <mxPoint x="2250" y="-759" as="sourcePoint" />
            <mxPoint x="2250" y="-1019" as="targetPoint" />
          </mxGeometry>
        </mxCell>
        <mxCell id="DzWVltwdL3yZklEhES8e-114" value="" style="endArrow=none;dashed=1;html=1;dashPattern=1 3;strokeWidth=2;rounded=0;" parent="1" edge="1">
          <mxGeometry width="50" height="50" relative="1" as="geometry">
            <mxPoint x="2262" y="-759" as="sourcePoint" />
            <mxPoint x="2262" y="-1019" as="targetPoint" />
          </mxGeometry>
        </mxCell>
        <mxCell id="DzWVltwdL3yZklEhES8e-115" value="" style="shape=process;whiteSpace=wrap;html=1;backgroundOutline=1;" parent="1" vertex="1">
          <mxGeometry x="2250" y="-829" width="80" height="10" as="geometry" />
        </mxCell>
        <mxCell id="DzWVltwdL3yZklEhES8e-116" value="VDU" style="shape=cube;whiteSpace=wrap;html=1;boundedLbl=1;backgroundOutline=1;darkOpacity=0.05;darkOpacity2=0.1;size=8;" parent="1" vertex="1">
          <mxGeometry x="2320" y="-1059" width="120" height="80" as="geometry" />
        </mxCell>
        <mxCell id="DzWVltwdL3yZklEhES8e-117" value="" style="shape=process;whiteSpace=wrap;html=1;backgroundOutline=1;" parent="1" vertex="1">
          <mxGeometry x="2250" y="-1019" width="80" height="10" as="geometry" />
        </mxCell>
        <mxCell id="DzWVltwdL3yZklEhES8e-118" value="" style="ellipse;whiteSpace=wrap;html=1;aspect=fixed;" parent="1" vertex="1">
          <mxGeometry x="2050" y="-549" width="40" height="40" as="geometry" />
        </mxCell>
        <mxCell id="DzWVltwdL3yZklEhES8e-119" value="" style="endArrow=none;dashed=1;html=1;dashPattern=1 3;strokeWidth=2;rounded=0;entryX=0.5;entryY=1;entryDx=0;entryDy=0;exitX=0.5;exitY=0;exitDx=0;exitDy=0;" parent="1" source="DzWVltwdL3yZklEhES8e-118" target="DzWVltwdL3yZklEhES8e-103" edge="1">
          <mxGeometry width="50" height="50" relative="1" as="geometry">
            <mxPoint x="2050" y="-559" as="sourcePoint" />
            <mxPoint x="2100" y="-609" as="targetPoint" />
          </mxGeometry>
        </mxCell>
        <mxCell id="DzWVltwdL3yZklEhES8e-120" value="&lt;font style=&quot;font-size: 18px;&quot;&gt;VM Running Openstack&lt;/font&gt;" style="text;html=1;align=center;verticalAlign=middle;resizable=0;points=[];autosize=1;strokeColor=none;fillColor=none;" parent="1" vertex="1">
          <mxGeometry x="1830" y="-1034" width="210" height="40" as="geometry" />
        </mxCell>
        <mxCell id="DzWVltwdL3yZklEhES8e-121" value="Modify Host IP tables" style="text;html=1;align=center;verticalAlign=middle;resizable=0;points=[];autosize=1;strokeColor=none;fillColor=none;" parent="1" vertex="1">
          <mxGeometry x="2130" y="-579" width="140" height="30" as="geometry" />
        </mxCell>
        <mxCell id="DzWVltwdL3yZklEhES8e-122" value="Modify Firewall" style="text;html=1;align=center;verticalAlign=middle;resizable=0;points=[];autosize=1;strokeColor=none;fillColor=none;" parent="1" vertex="1">
          <mxGeometry x="2150" y="-599" width="100" height="30" as="geometry" />
        </mxCell>
        <mxCell id="4-nQHDzcqD7yIo2uNKvR-1" value="" style="rounded=1;whiteSpace=wrap;html=1;" parent="1" vertex="1">
          <mxGeometry x="-800" y="1320" width="2080" height="1520" as="geometry" />
        </mxCell>
        <mxCell id="4-nQHDzcqD7yIo2uNKvR-3" value="" style="rounded=1;whiteSpace=wrap;html=1;" parent="1" vertex="1">
          <mxGeometry x="800" y="1930" width="370" height="130" as="geometry" />
        </mxCell>
        <mxCell id="4-nQHDzcqD7yIo2uNKvR-4" value="" style="shape=cube;whiteSpace=wrap;html=1;boundedLbl=1;backgroundOutline=1;darkOpacity=0.05;darkOpacity2=0.1;" parent="1" vertex="1">
          <mxGeometry x="260" y="1720" width="410" height="330" as="geometry" />
        </mxCell>
        <mxCell id="4-nQHDzcqD7yIo2uNKvR-5" value="VDU" style="text;html=1;align=center;verticalAlign=middle;resizable=0;points=[];autosize=1;strokeColor=none;fillColor=none;" parent="1" vertex="1">
          <mxGeometry x="290" y="1750" width="50" height="30" as="geometry" />
        </mxCell>
        <mxCell id="4-nQHDzcqD7yIo2uNKvR-7" value="Filebeat" style="ellipse;whiteSpace=wrap;html=1;aspect=fixed;" parent="1" vertex="1">
          <mxGeometry x="440" y="1900" width="80" height="80" as="geometry" />
        </mxCell>
        <mxCell id="4-nQHDzcqD7yIo2uNKvR-49" style="rounded=0;orthogonalLoop=1;jettySize=auto;html=1;entryX=0;entryY=0;entryDx=0;entryDy=0;" parent="1" source="4-nQHDzcqD7yIo2uNKvR-9" target="4-nQHDzcqD7yIo2uNKvR-11" edge="1">
          <mxGeometry relative="1" as="geometry" />
        </mxCell>
        <mxCell id="4-nQHDzcqD7yIo2uNKvR-50" style="rounded=0;orthogonalLoop=1;jettySize=auto;html=1;entryX=1;entryY=0;entryDx=0;entryDy=0;dashed=1;startArrow=classic;startFill=1;" parent="1" source="4-nQHDzcqD7yIo2uNKvR-9" target="4-nQHDzcqD7yIo2uNKvR-10" edge="1">
          <mxGeometry relative="1" as="geometry" />
        </mxCell>
        <mxCell id="4-nQHDzcqD7yIo2uNKvR-9" value="" style="ellipse;whiteSpace=wrap;html=1;aspect=fixed;" parent="1" vertex="1">
          <mxGeometry x="465" y="1724" width="30" height="30" as="geometry" />
        </mxCell>
        <mxCell id="4-nQHDzcqD7yIo2uNKvR-10" value="Zeek" style="ellipse;whiteSpace=wrap;html=1;aspect=fixed;" parent="1" vertex="1">
          <mxGeometry x="350" y="1780" width="80" height="80" as="geometry" />
        </mxCell>
        <mxCell id="4-nQHDzcqD7yIo2uNKvR-11" value="Network Function" style="ellipse;whiteSpace=wrap;html=1;aspect=fixed;" parent="1" vertex="1">
          <mxGeometry x="540" y="1780" width="80" height="80" as="geometry" />
        </mxCell>
        <mxCell id="4-nQHDzcqD7yIo2uNKvR-14" value="" style="shape=link;html=1;rounded=0;entryX=0;entryY=1;entryDx=0;entryDy=0;exitX=1;exitY=0;exitDx=0;exitDy=0;width=19;" parent="1" source="4-nQHDzcqD7yIo2uNKvR-7" target="4-nQHDzcqD7yIo2uNKvR-11" edge="1">
          <mxGeometry width="100" relative="1" as="geometry">
            <mxPoint x="490" y="1880" as="sourcePoint" />
            <mxPoint x="590" y="1880" as="targetPoint" />
          </mxGeometry>
        </mxCell>
        <mxCell id="4-nQHDzcqD7yIo2uNKvR-15" value="" style="shape=link;html=1;rounded=0;entryX=1;entryY=1;entryDx=0;entryDy=0;exitX=0;exitY=0;exitDx=0;exitDy=0;width=19;" parent="1" source="4-nQHDzcqD7yIo2uNKvR-7" target="4-nQHDzcqD7yIo2uNKvR-10" edge="1">
          <mxGeometry width="100" relative="1" as="geometry">
            <mxPoint x="518" y="1922" as="sourcePoint" />
            <mxPoint x="562" y="1858" as="targetPoint" />
          </mxGeometry>
        </mxCell>
        <mxCell id="4-nQHDzcqD7yIo2uNKvR-18" value="" style="ellipse;whiteSpace=wrap;html=1;aspect=fixed;" parent="1" vertex="1">
          <mxGeometry x="465" y="2020" width="30" height="30" as="geometry" />
        </mxCell>
        <mxCell id="4-nQHDzcqD7yIo2uNKvR-19" value="" style="endArrow=none;dashed=1;html=1;dashPattern=1 3;strokeWidth=2;rounded=0;exitX=0.5;exitY=0;exitDx=0;exitDy=0;entryX=0.5;entryY=1;entryDx=0;entryDy=0;" parent="1" source="4-nQHDzcqD7yIo2uNKvR-18" target="4-nQHDzcqD7yIo2uNKvR-7" edge="1">
          <mxGeometry width="50" height="50" relative="1" as="geometry">
            <mxPoint x="400" y="1920" as="sourcePoint" />
            <mxPoint x="450" y="1870" as="targetPoint" />
          </mxGeometry>
        </mxCell>
        <mxCell id="4-nQHDzcqD7yIo2uNKvR-20" value="" style="shape=link;html=1;rounded=0;exitX=0.5;exitY=1;exitDx=0;exitDy=0;" parent="1" source="4-nQHDzcqD7yIo2uNKvR-18" edge="1">
          <mxGeometry width="100" relative="1" as="geometry">
            <mxPoint x="470" y="2140" as="sourcePoint" />
            <mxPoint x="480" y="2140" as="targetPoint" />
          </mxGeometry>
        </mxCell>
        <mxCell id="4-nQHDzcqD7yIo2uNKvR-21" value="5G Comm network" style="text;html=1;align=center;verticalAlign=middle;resizable=0;points=[];autosize=1;strokeColor=none;fillColor=none;" parent="1" vertex="1">
          <mxGeometry x="420" y="1540" width="120" height="30" as="geometry" />
        </mxCell>
        <mxCell id="4-nQHDzcqD7yIo2uNKvR-22" value="ELK Network" style="text;html=1;strokeColor=none;fillColor=none;align=center;verticalAlign=middle;whiteSpace=wrap;rounded=0;" parent="1" vertex="1">
          <mxGeometry x="450" y="2150" width="60" height="30" as="geometry" />
        </mxCell>
        <mxCell id="4-nQHDzcqD7yIo2uNKvR-23" value="" style="endArrow=classic;html=1;rounded=0;" parent="1" edge="1">
          <mxGeometry width="50" height="50" relative="1" as="geometry">
            <mxPoint x="800" y="1940" as="sourcePoint" />
            <mxPoint x="540" y="1890" as="targetPoint" />
          </mxGeometry>
        </mxCell>
        <mxCell id="4-nQHDzcqD7yIo2uNKvR-24" value="Directories containing logs from Zeek and&lt;br&gt;&amp;nbsp;the network function are shared with filebeat container" style="text;html=1;align=center;verticalAlign=middle;resizable=0;points=[];autosize=1;strokeColor=none;fillColor=none;" parent="1" vertex="1">
          <mxGeometry x="830" y="1970" width="310" height="40" as="geometry" />
        </mxCell>
        <mxCell id="4-nQHDzcqD7yIo2uNKvR-25" value="" style="endArrow=classic;html=1;rounded=0;" parent="1" edge="1">
          <mxGeometry width="50" height="50" relative="1" as="geometry">
            <mxPoint x="800" y="1970" as="sourcePoint" />
            <mxPoint x="450" y="1880" as="targetPoint" />
          </mxGeometry>
        </mxCell>
        <mxCell id="4-nQHDzcqD7yIo2uNKvR-32" value="" style="shape=cube;whiteSpace=wrap;html=1;boundedLbl=1;backgroundOutline=1;darkOpacity=0.05;darkOpacity2=0.1;" parent="1" vertex="1">
          <mxGeometry x="240" y="2360" width="480" height="370" as="geometry" />
        </mxCell>
        <mxCell id="4-nQHDzcqD7yIo2uNKvR-33" value="Logstash" style="ellipse;whiteSpace=wrap;html=1;aspect=fixed;" parent="1" vertex="1">
          <mxGeometry x="440" y="2480" width="80" height="80" as="geometry" />
        </mxCell>
        <mxCell id="4-nQHDzcqD7yIo2uNKvR-34" value="ElasticSearch" style="ellipse;whiteSpace=wrap;html=1;aspect=fixed;" parent="1" vertex="1">
          <mxGeometry x="540" y="2590" width="80" height="80" as="geometry" />
        </mxCell>
        <mxCell id="4-nQHDzcqD7yIo2uNKvR-35" value="Kibana" style="ellipse;whiteSpace=wrap;html=1;aspect=fixed;" parent="1" vertex="1">
          <mxGeometry x="344" y="2590" width="80" height="80" as="geometry" />
        </mxCell>
        <mxCell id="4-nQHDzcqD7yIo2uNKvR-36" value="" style="ellipse;whiteSpace=wrap;html=1;aspect=fixed;" parent="1" vertex="1">
          <mxGeometry x="465" y="2380" width="30" height="30" as="geometry" />
        </mxCell>
        <mxCell id="4-nQHDzcqD7yIo2uNKvR-37" value="" style="shape=link;html=1;rounded=0;entryX=0.5;entryY=1;entryDx=0;entryDy=0;exitX=0.5;exitY=0;exitDx=0;exitDy=0;" parent="1" source="4-nQHDzcqD7yIo2uNKvR-36" target="4-nQHDzcqD7yIo2uNKvR-22" edge="1">
          <mxGeometry width="100" relative="1" as="geometry">
            <mxPoint x="410" y="2390" as="sourcePoint" />
            <mxPoint x="510" y="2390" as="targetPoint" />
          </mxGeometry>
        </mxCell>
        <mxCell id="4-nQHDzcqD7yIo2uNKvR-40" value="" style="endArrow=none;dashed=1;html=1;dashPattern=1 3;strokeWidth=2;rounded=0;exitX=0.5;exitY=0;exitDx=0;exitDy=0;entryX=0.5;entryY=1;entryDx=0;entryDy=0;" parent="1" source="4-nQHDzcqD7yIo2uNKvR-33" target="4-nQHDzcqD7yIo2uNKvR-36" edge="1">
          <mxGeometry width="50" height="50" relative="1" as="geometry">
            <mxPoint x="440" y="2450" as="sourcePoint" />
            <mxPoint x="490" y="2400" as="targetPoint" />
          </mxGeometry>
        </mxCell>
        <mxCell id="4-nQHDzcqD7yIo2uNKvR-41" value="" style="endArrow=classic;html=1;rounded=0;entryX=0;entryY=0;entryDx=0;entryDy=0;exitX=1;exitY=1;exitDx=0;exitDy=0;" parent="1" source="4-nQHDzcqD7yIo2uNKvR-33" target="4-nQHDzcqD7yIo2uNKvR-34" edge="1">
          <mxGeometry relative="1" as="geometry">
            <mxPoint x="410" y="2520" as="sourcePoint" />
            <mxPoint x="510" y="2520" as="targetPoint" />
          </mxGeometry>
        </mxCell>
        <mxCell id="4-nQHDzcqD7yIo2uNKvR-42" value="Store" style="edgeLabel;resizable=0;html=1;align=center;verticalAlign=middle;" parent="4-nQHDzcqD7yIo2uNKvR-41" connectable="0" vertex="1">
          <mxGeometry relative="1" as="geometry" />
        </mxCell>
        <mxCell id="4-nQHDzcqD7yIo2uNKvR-43" value="" style="endArrow=classic;startArrow=classic;html=1;rounded=0;entryX=0;entryY=0.5;entryDx=0;entryDy=0;exitX=1;exitY=0.5;exitDx=0;exitDy=0;" parent="1" source="4-nQHDzcqD7yIo2uNKvR-35" target="4-nQHDzcqD7yIo2uNKvR-34" edge="1">
          <mxGeometry width="50" height="50" relative="1" as="geometry">
            <mxPoint x="440" y="2540" as="sourcePoint" />
            <mxPoint x="490" y="2490" as="targetPoint" />
          </mxGeometry>
        </mxCell>
        <mxCell id="4-nQHDzcqD7yIo2uNKvR-44" value="Display/Interact" style="edgeLabel;html=1;align=center;verticalAlign=middle;resizable=0;points=[];" parent="4-nQHDzcqD7yIo2uNKvR-43" vertex="1" connectable="0">
          <mxGeometry x="0.0216" relative="1" as="geometry">
            <mxPoint as="offset" />
          </mxGeometry>
        </mxCell>
        <mxCell id="4-nQHDzcqD7yIo2uNKvR-45" style="edgeStyle=orthogonalEdgeStyle;rounded=0;orthogonalLoop=1;jettySize=auto;html=1;dashed=1;endArrow=none;endFill=0;" parent="1" source="4-nQHDzcqD7yIo2uNKvR-46" target="4-nQHDzcqD7yIo2uNKvR-35" edge="1">
          <mxGeometry relative="1" as="geometry" />
        </mxCell>
        <mxCell id="4-nQHDzcqD7yIo2uNKvR-46" value="" style="rhombus;whiteSpace=wrap;html=1;" parent="1" vertex="1">
          <mxGeometry x="240" y="2615" width="30" height="30" as="geometry" />
        </mxCell>
        <mxCell id="4-nQHDzcqD7yIo2uNKvR-47" value="Floating IP" style="text;html=1;align=center;verticalAlign=middle;resizable=0;points=[];autosize=1;strokeColor=none;fillColor=none;" parent="1" vertex="1">
          <mxGeometry x="160" y="2615" width="80" height="30" as="geometry" />
        </mxCell>
        <mxCell id="4-nQHDzcqD7yIo2uNKvR-48" value="&lt;font style=&quot;font-size: 34px;&quot;&gt;Prototype V2 Concept&lt;/font&gt;" style="text;html=1;align=center;verticalAlign=middle;resizable=0;points=[];autosize=1;strokeColor=none;fillColor=none;" parent="1" vertex="1">
          <mxGeometry x="-680" y="1460" width="360" height="50" as="geometry" />
        </mxCell>
        <mxCell id="4-nQHDzcqD7yIo2uNKvR-51" value="" style="shape=link;html=1;rounded=0;entryX=0.5;entryY=0;entryDx=0;entryDy=0;" parent="1" source="4-nQHDzcqD7yIo2uNKvR-21" target="4-nQHDzcqD7yIo2uNKvR-9" edge="1">
          <mxGeometry width="100" relative="1" as="geometry">
            <mxPoint x="350" y="1720" as="sourcePoint" />
            <mxPoint x="450" y="1720" as="targetPoint" />
          </mxGeometry>
        </mxCell>
        <mxCell id="4-nQHDzcqD7yIo2uNKvR-52" value="Will now use network mode = &quot;host&quot;" style="text;html=1;strokeColor=none;fillColor=none;align=center;verticalAlign=middle;whiteSpace=wrap;rounded=0;" parent="1" vertex="1">
          <mxGeometry x="680" y="1805" width="220" height="30" as="geometry" />
        </mxCell>
        <mxCell id="4-nQHDzcqD7yIo2uNKvR-53" value="Will listen on 5G communication interface" style="text;html=1;strokeColor=none;fillColor=none;align=center;verticalAlign=middle;whiteSpace=wrap;rounded=0;" parent="1" vertex="1">
          <mxGeometry x="-20" y="1775" width="260" height="30" as="geometry" />
        </mxCell>
        <mxCell id="4-nQHDzcqD7yIo2uNKvR-54" value="&lt;h1&gt;&lt;span style=&quot;background-color: initial;&quot;&gt;&lt;font color=&quot;#ff0000&quot;&gt;NRF Issue&lt;/font&gt;&lt;/span&gt;&lt;/h1&gt;&lt;div&gt;Bad of of discorverability whereby the nfs are nesting the container ip in registration requests to NRF.&amp;nbsp;&lt;/div&gt;&lt;div&gt;&lt;br&gt;&lt;/div&gt;&lt;div&gt;NRF is an important for the dynamic aspect of 5G and so this configuration is not suitable&lt;/div&gt;" style="text;html=1;strokeColor=none;fillColor=none;spacing=5;spacingTop=-20;whiteSpace=wrap;overflow=hidden;rounded=0;" parent="1" vertex="1">
          <mxGeometry x="840" y="40" width="290" height="120" as="geometry" />
        </mxCell>
        <mxCell id="4-nQHDzcqD7yIo2uNKvR-55" value="&lt;h1&gt;&lt;span style=&quot;background-color: initial;&quot;&gt;&lt;font color=&quot;#ff0000&quot;&gt;NRF Issue&lt;/font&gt;&lt;/span&gt;&lt;/h1&gt;&lt;div&gt;Bad of of discorverability whereby the nfs are nesting the container ip in registration requests to NRF.&amp;nbsp;&lt;/div&gt;&lt;div&gt;&lt;br&gt;&lt;/div&gt;&lt;div&gt;NRF is an important for the dynamic aspect of 5G and so this configuration is not suitable&lt;/div&gt;" style="text;html=1;strokeColor=none;fillColor=none;spacing=5;spacingTop=-20;whiteSpace=wrap;overflow=hidden;rounded=0;" parent="1" vertex="1">
          <mxGeometry x="1439" y="1590" width="290" height="120" as="geometry" />
        </mxCell>
        <mxCell id="4-nQHDzcqD7yIo2uNKvR-56" value="&lt;h1&gt;&lt;span style=&quot;background-color: initial;&quot;&gt;&lt;font color=&quot;#00ff00&quot;&gt;NRF FIX&lt;/font&gt;&lt;/span&gt;&lt;/h1&gt;&lt;h1&gt;&lt;span style=&quot;font-size: 12px; font-weight: 400;&quot;&gt;Addresses issue of NRF registration by essentially giving the network function direct access to the VDU&#39;s network stack. Meaning the container will now&amp;nbsp;&lt;/span&gt;&lt;/h1&gt;" style="text;html=1;strokeColor=none;fillColor=none;spacing=5;spacingTop=-20;whiteSpace=wrap;overflow=hidden;rounded=0;" parent="1" vertex="1">
          <mxGeometry x="-460" y="1780" width="300" height="150" as="geometry" />
        </mxCell>
        <mxCell id="4-nQHDzcqD7yIo2uNKvR-60" value="&lt;h1&gt;&lt;font color=&quot;#ff9933&quot;&gt;NRF Issue&lt;/font&gt;&lt;/h1&gt;&lt;p&gt;This does have the nrf issue however it is still very useful for zeek configuration&lt;/p&gt;" style="text;html=1;strokeColor=none;fillColor=none;spacing=5;spacingTop=-20;whiteSpace=wrap;overflow=hidden;rounded=0;" parent="1" vertex="1">
          <mxGeometry x="1474" y="1155" width="190" height="120" as="geometry" />
        </mxCell>
        <mxCell id="4-nQHDzcqD7yIo2uNKvR-63" value="" style="rounded=1;whiteSpace=wrap;html=1;" parent="1" vertex="1">
          <mxGeometry x="-700" y="3547" width="860" height="340" as="geometry" />
        </mxCell>
        <mxCell id="4-nQHDzcqD7yIo2uNKvR-64" value="ElasticSearch" style="ellipse;whiteSpace=wrap;html=1;aspect=fixed;" parent="1" vertex="1">
          <mxGeometry x="-395" y="3700" width="80" height="80" as="geometry" />
        </mxCell>
        <mxCell id="4-nQHDzcqD7yIo2uNKvR-65" value="Logstash" style="ellipse;whiteSpace=wrap;html=1;aspect=fixed;" parent="1" vertex="1">
          <mxGeometry x="-555" y="3700" width="80" height="80" as="geometry" />
        </mxCell>
        <mxCell id="4-nQHDzcqD7yIo2uNKvR-66" value="Kibana" style="ellipse;whiteSpace=wrap;html=1;aspect=fixed;" parent="1" vertex="1">
          <mxGeometry x="-475" y="3570" width="80" height="80" as="geometry" />
        </mxCell>
        <mxCell id="4-nQHDzcqD7yIo2uNKvR-67" value="" style="endArrow=classic;startArrow=classic;html=1;rounded=0;exitX=0.5;exitY=0;exitDx=0;exitDy=0;entryX=1;entryY=1;entryDx=0;entryDy=0;" parent="1" source="4-nQHDzcqD7yIo2uNKvR-64" target="4-nQHDzcqD7yIo2uNKvR-66" edge="1">
          <mxGeometry width="50" height="50" relative="1" as="geometry">
            <mxPoint x="-775" y="3700" as="sourcePoint" />
            <mxPoint x="-725" y="3650" as="targetPoint" />
          </mxGeometry>
        </mxCell>
        <mxCell id="4-nQHDzcqD7yIo2uNKvR-68" value="" style="endArrow=classic;html=1;rounded=0;entryX=0;entryY=0.5;entryDx=0;entryDy=0;exitX=1;exitY=0.5;exitDx=0;exitDy=0;" parent="1" source="4-nQHDzcqD7yIo2uNKvR-65" target="4-nQHDzcqD7yIo2uNKvR-64" edge="1">
          <mxGeometry width="50" height="50" relative="1" as="geometry">
            <mxPoint x="-625" y="3820" as="sourcePoint" />
            <mxPoint x="-575" y="3770" as="targetPoint" />
          </mxGeometry>
        </mxCell>
        <mxCell id="4-nQHDzcqD7yIo2uNKvR-69" value="" style="ellipse;whiteSpace=wrap;html=1;aspect=fixed;" parent="1" vertex="1">
          <mxGeometry x="-455" y="3860" width="40" height="40" as="geometry" />
        </mxCell>
        <mxCell id="4-nQHDzcqD7yIo2uNKvR-70" value="" style="endArrow=none;dashed=1;html=1;dashPattern=1 3;strokeWidth=2;rounded=0;entryX=0.5;entryY=1;entryDx=0;entryDy=0;exitX=1;exitY=0;exitDx=0;exitDy=0;" parent="1" source="4-nQHDzcqD7yIo2uNKvR-69" target="4-nQHDzcqD7yIo2uNKvR-64" edge="1">
          <mxGeometry width="50" height="50" relative="1" as="geometry">
            <mxPoint x="-825" y="3900" as="sourcePoint" />
            <mxPoint x="-775" y="3850" as="targetPoint" />
          </mxGeometry>
        </mxCell>
        <mxCell id="4-nQHDzcqD7yIo2uNKvR-71" value="" style="endArrow=none;dashed=1;html=1;dashPattern=1 3;strokeWidth=2;rounded=0;exitX=0;exitY=0;exitDx=0;exitDy=0;entryX=0.5;entryY=1;entryDx=0;entryDy=0;" parent="1" source="4-nQHDzcqD7yIo2uNKvR-69" target="4-nQHDzcqD7yIo2uNKvR-65" edge="1">
          <mxGeometry width="50" height="50" relative="1" as="geometry">
            <mxPoint x="-575" y="3770" as="sourcePoint" />
            <mxPoint x="-525" y="3720" as="targetPoint" />
          </mxGeometry>
        </mxCell>
        <mxCell id="4-nQHDzcqD7yIo2uNKvR-72" value="&lt;font style=&quot;font-size: 25px;&quot;&gt;Host Util&lt;/font&gt;" style="text;html=1;strokeColor=none;fillColor=none;align=center;verticalAlign=middle;whiteSpace=wrap;rounded=0;" parent="1" vertex="1">
          <mxGeometry x="-660" y="3585" width="100" height="30" as="geometry" />
        </mxCell>
        <mxCell id="4-nQHDzcqD7yIo2uNKvR-73" value="" style="shape=link;html=1;rounded=0;" parent="1" edge="1">
          <mxGeometry width="100" relative="1" as="geometry">
            <mxPoint x="-620" y="4020" as="sourcePoint" />
            <mxPoint x="2850" y="4020" as="targetPoint" />
          </mxGeometry>
        </mxCell>
        <mxCell id="4-nQHDzcqD7yIo2uNKvR-75" value="" style="endArrow=none;html=1;rounded=0;entryX=0.5;entryY=1;entryDx=0;entryDy=0;" parent="1" target="4-nQHDzcqD7yIo2uNKvR-69" edge="1">
          <mxGeometry width="50" height="50" relative="1" as="geometry">
            <mxPoint x="-435" y="4020" as="sourcePoint" />
            <mxPoint x="330" y="4120" as="targetPoint" />
          </mxGeometry>
        </mxCell>
        <mxCell id="4-nQHDzcqD7yIo2uNKvR-76" value="" style="rhombus;whiteSpace=wrap;html=1;" parent="1" vertex="1">
          <mxGeometry x="680" y="3820" width="40" height="40" as="geometry" />
        </mxCell>
        <mxCell id="4-nQHDzcqD7yIo2uNKvR-77" value="Virtual Router" style="text;html=1;align=center;verticalAlign=middle;resizable=0;points=[];autosize=1;strokeColor=none;fillColor=none;" parent="1" vertex="1">
          <mxGeometry x="720" y="3825" width="100" height="30" as="geometry" />
        </mxCell>
        <mxCell id="4-nQHDzcqD7yIo2uNKvR-78" value="" style="endArrow=none;html=1;rounded=0;exitX=0.5;exitY=0;exitDx=0;exitDy=0;" parent="1" source="4-nQHDzcqD7yIo2uNKvR-76" edge="1">
          <mxGeometry width="50" height="50" relative="1" as="geometry">
            <mxPoint x="690" y="3790" as="sourcePoint" />
            <mxPoint x="700" y="3740" as="targetPoint" />
          </mxGeometry>
        </mxCell>
        <mxCell id="4-nQHDzcqD7yIo2uNKvR-80" value="Router Interface" style="text;html=1;align=center;verticalAlign=middle;resizable=0;points=[];autosize=1;strokeColor=none;fillColor=none;" parent="1" vertex="1">
          <mxGeometry x="475" y="3760" width="110" height="30" as="geometry" />
        </mxCell>
        <mxCell id="4-nQHDzcqD7yIo2uNKvR-83" value="" style="whiteSpace=wrap;html=1;aspect=fixed;" parent="1" vertex="1">
          <mxGeometry x="822.89" y="3730" width="20" height="20" as="geometry" />
        </mxCell>
        <mxCell id="4-nQHDzcqD7yIo2uNKvR-86" value="" style="endArrow=none;dashed=1;html=1;dashPattern=1 3;strokeWidth=2;rounded=0;entryX=0.865;entryY=-0.4;entryDx=0;entryDy=0;entryPerimeter=0;" parent="1" target="4-nQHDzcqD7yIo2uNKvR-167" edge="1">
          <mxGeometry width="50" height="50" relative="1" as="geometry">
            <mxPoint x="830.89" y="3730" as="sourcePoint" />
            <mxPoint x="830" y="3290" as="targetPoint" />
          </mxGeometry>
        </mxCell>
        <mxCell id="4-nQHDzcqD7yIo2uNKvR-87" value="" style="endArrow=none;dashed=1;html=1;dashPattern=1 3;strokeWidth=2;rounded=0;entryX=1;entryY=0;entryDx=0;entryDy=0;" parent="1" edge="1" target="4-nQHDzcqD7yIo2uNKvR-167">
          <mxGeometry width="50" height="50" relative="1" as="geometry">
            <mxPoint x="842.89" y="3730" as="sourcePoint" />
            <mxPoint x="843" y="3360" as="targetPoint" />
          </mxGeometry>
        </mxCell>
        <mxCell id="4-nQHDzcqD7yIo2uNKvR-89" value="UDR" style="shape=cube;whiteSpace=wrap;html=1;boundedLbl=1;backgroundOutline=1;darkOpacity=0.05;darkOpacity2=0.1;size=8;" parent="1" vertex="1">
          <mxGeometry x="640" y="3610" width="120" height="80" as="geometry" />
        </mxCell>
        <mxCell id="4-nQHDzcqD7yIo2uNKvR-90" value="" style="shape=process;whiteSpace=wrap;html=1;backgroundOutline=1;" parent="1" vertex="1">
          <mxGeometry x="760" y="3650" width="80" height="10" as="geometry" />
        </mxCell>
        <mxCell id="F2C1mFBNP2JFjnUDeWym-179" style="edgeStyle=orthogonalEdgeStyle;rounded=0;orthogonalLoop=1;jettySize=auto;html=1;" edge="1" parent="1" source="4-nQHDzcqD7yIo2uNKvR-91">
          <mxGeometry relative="1" as="geometry">
            <mxPoint x="700" y="4020" as="targetPoint" />
          </mxGeometry>
        </mxCell>
        <mxCell id="4-nQHDzcqD7yIo2uNKvR-91" value="" style="ellipse;whiteSpace=wrap;html=1;aspect=fixed;" parent="1" vertex="1">
          <mxGeometry x="680" y="3940" width="40" height="40" as="geometry" />
        </mxCell>
        <mxCell id="4-nQHDzcqD7yIo2uNKvR-93" value="" style="endArrow=none;dashed=1;html=1;dashPattern=1 3;strokeWidth=2;rounded=0;entryX=0.5;entryY=1;entryDx=0;entryDy=0;exitX=0.5;exitY=0;exitDx=0;exitDy=0;" parent="1" source="4-nQHDzcqD7yIo2uNKvR-91" target="4-nQHDzcqD7yIo2uNKvR-76" edge="1">
          <mxGeometry width="50" height="50" relative="1" as="geometry">
            <mxPoint x="680" y="3930" as="sourcePoint" />
            <mxPoint x="730" y="3880" as="targetPoint" />
          </mxGeometry>
        </mxCell>
        <mxCell id="4-nQHDzcqD7yIo2uNKvR-148" value="Traffic Generator" style="ellipse;whiteSpace=wrap;html=1;aspect=fixed;" parent="1" vertex="1">
          <mxGeometry x="-127" y="3700" width="80" height="80" as="geometry" />
        </mxCell>
        <mxCell id="4-nQHDzcqD7yIo2uNKvR-149" value="" style="ellipse;whiteSpace=wrap;html=1;aspect=fixed;" parent="1" vertex="1">
          <mxGeometry x="-107" y="3860" width="40" height="40" as="geometry" />
        </mxCell>
        <mxCell id="4-nQHDzcqD7yIo2uNKvR-150" value="" style="endArrow=none;html=1;rounded=0;entryX=0.5;entryY=1;entryDx=0;entryDy=0;" parent="1" target="4-nQHDzcqD7yIo2uNKvR-149" edge="1">
          <mxGeometry width="50" height="50" relative="1" as="geometry">
            <mxPoint x="-87" y="4020" as="sourcePoint" />
            <mxPoint x="30" y="3950" as="targetPoint" />
          </mxGeometry>
        </mxCell>
        <mxCell id="4-nQHDzcqD7yIo2uNKvR-151" value="" style="endArrow=none;dashed=1;html=1;dashPattern=1 3;strokeWidth=2;rounded=0;entryX=0.5;entryY=1;entryDx=0;entryDy=0;exitX=0.5;exitY=0;exitDx=0;exitDy=0;" parent="1" source="4-nQHDzcqD7yIo2uNKvR-149" target="4-nQHDzcqD7yIo2uNKvR-148" edge="1">
          <mxGeometry width="50" height="50" relative="1" as="geometry">
            <mxPoint x="-70" y="3980" as="sourcePoint" />
            <mxPoint x="-20" y="3930" as="targetPoint" />
          </mxGeometry>
        </mxCell>
        <mxCell id="4-nQHDzcqD7yIo2uNKvR-154" value="" style="shape=process;whiteSpace=wrap;html=1;backgroundOutline=1;" parent="1" vertex="1">
          <mxGeometry x="570" y="3650" width="80" height="10" as="geometry" />
        </mxCell>
        <mxCell id="4-nQHDzcqD7yIo2uNKvR-156" value="" style="endArrow=none;html=1;rounded=0;entryX=0;entryY=0.5;entryDx=0;entryDy=0;" parent="1" target="4-nQHDzcqD7yIo2uNKvR-83" edge="1">
          <mxGeometry width="50" height="50" relative="1" as="geometry">
            <mxPoint x="560" y="3740" as="sourcePoint" />
            <mxPoint x="725" y="3715" as="targetPoint" />
          </mxGeometry>
        </mxCell>
        <mxCell id="4-nQHDzcqD7yIo2uNKvR-160" value="" style="whiteSpace=wrap;html=1;aspect=fixed;" parent="1" vertex="1">
          <mxGeometry x="560" y="3730" width="20" height="20" as="geometry" />
        </mxCell>
        <mxCell id="4-nQHDzcqD7yIo2uNKvR-161" value="" style="endArrow=none;dashed=1;html=1;dashPattern=1 3;strokeWidth=2;rounded=0;entryX=0;entryY=0;entryDx=0;entryDy=0;" parent="1" edge="1" target="4-nQHDzcqD7yIo2uNKvR-168">
          <mxGeometry width="50" height="50" relative="1" as="geometry">
            <mxPoint x="568" y="3730" as="sourcePoint" />
            <mxPoint x="567" y="3360" as="targetPoint" />
          </mxGeometry>
        </mxCell>
        <mxCell id="4-nQHDzcqD7yIo2uNKvR-162" value="" style="endArrow=none;dashed=1;html=1;dashPattern=1 3;strokeWidth=2;rounded=0;entryX=0.118;entryY=-0.044;entryDx=0;entryDy=0;entryPerimeter=0;" parent="1" target="4-nQHDzcqD7yIo2uNKvR-168" edge="1">
          <mxGeometry width="50" height="50" relative="1" as="geometry">
            <mxPoint x="580" y="3730" as="sourcePoint" />
            <mxPoint x="580.11" y="3290" as="targetPoint" />
          </mxGeometry>
        </mxCell>
        <mxCell id="4-nQHDzcqD7yIo2uNKvR-163" value="NRF" style="shape=cube;whiteSpace=wrap;html=1;boundedLbl=1;backgroundOutline=1;darkOpacity=0.05;darkOpacity2=0.1;size=8;" parent="1" vertex="1">
          <mxGeometry x="640" y="3510" width="120" height="80" as="geometry" />
        </mxCell>
        <mxCell id="4-nQHDzcqD7yIo2uNKvR-164" value="" style="shape=process;whiteSpace=wrap;html=1;backgroundOutline=1;" parent="1" vertex="1">
          <mxGeometry x="760" y="3550" width="80" height="10" as="geometry" />
        </mxCell>
        <mxCell id="4-nQHDzcqD7yIo2uNKvR-165" value="" style="shape=process;whiteSpace=wrap;html=1;backgroundOutline=1;" parent="1" vertex="1">
          <mxGeometry x="570" y="3550" width="80" height="10" as="geometry" />
        </mxCell>
        <mxCell id="4-nQHDzcqD7yIo2uNKvR-166" value="MySQL" style="shape=cube;whiteSpace=wrap;html=1;boundedLbl=1;backgroundOutline=1;darkOpacity=0.05;darkOpacity2=0.1;size=8;" parent="1" vertex="1">
          <mxGeometry x="640" y="3400" width="120" height="80" as="geometry" />
        </mxCell>
        <mxCell id="4-nQHDzcqD7yIo2uNKvR-167" value="" style="shape=process;whiteSpace=wrap;html=1;backgroundOutline=1;" parent="1" vertex="1">
          <mxGeometry x="760" y="3440" width="80" height="10" as="geometry" />
        </mxCell>
        <mxCell id="4-nQHDzcqD7yIo2uNKvR-168" value="" style="shape=process;whiteSpace=wrap;html=1;backgroundOutline=1;" parent="1" vertex="1">
          <mxGeometry x="570" y="3440" width="80" height="10" as="geometry" />
        </mxCell>
        <mxCell id="4-nQHDzcqD7yIo2uNKvR-169" value="ELK subnet A&lt;br&gt;cidr: 10.3.0.0/26" style="text;html=1;align=center;verticalAlign=middle;resizable=0;points=[];autosize=1;strokeColor=none;fillColor=none;" parent="1" vertex="1">
          <mxGeometry x="861" y="3509.5" width="110" height="40" as="geometry" />
        </mxCell>
        <mxCell id="4-nQHDzcqD7yIo2uNKvR-170" value="Router Interface" style="text;html=1;align=center;verticalAlign=middle;resizable=0;points=[];autosize=1;strokeColor=none;fillColor=none;" parent="1" vertex="1">
          <mxGeometry x="830" y="3760" width="110" height="30" as="geometry" />
        </mxCell>
        <mxCell id="4-nQHDzcqD7yIo2uNKvR-171" value="&lt;font style=&quot;font-size: 29px;&quot;&gt;Host A&lt;/font&gt;" style="text;html=1;align=center;verticalAlign=middle;resizable=0;points=[];autosize=1;strokeColor=none;fillColor=none;" parent="1" vertex="1">
          <mxGeometry x="410" y="3345" width="110" height="50" as="geometry" />
        </mxCell>
        <mxCell id="4-nQHDzcqD7yIo2uNKvR-204" value="5G subnet A&lt;br&gt;cidr: 10.2.0.0/26" style="text;html=1;align=center;verticalAlign=middle;resizable=0;points=[];autosize=1;strokeColor=none;fillColor=none;" parent="1" vertex="1">
          <mxGeometry x="450" y="3510" width="110" height="40" as="geometry" />
        </mxCell>
        <mxCell id="4-nQHDzcqD7yIo2uNKvR-208" value="10.2.0.1" style="text;html=1;align=center;verticalAlign=middle;resizable=0;points=[];autosize=1;strokeColor=none;fillColor=none;" parent="1" vertex="1">
          <mxGeometry x="490" y="3725" width="70" height="30" as="geometry" />
        </mxCell>
        <mxCell id="4-nQHDzcqD7yIo2uNKvR-209" value="10.3.0.1" style="text;html=1;align=center;verticalAlign=middle;resizable=0;points=[];autosize=1;strokeColor=none;fillColor=none;" parent="1" vertex="1">
          <mxGeometry x="850" y="3725" width="70" height="30" as="geometry" />
        </mxCell>
        <mxCell id="4-nQHDzcqD7yIo2uNKvR-213" value="Traffic Generator will point at UPF for user traffic" style="text;html=1;align=center;verticalAlign=middle;resizable=0;points=[];autosize=1;strokeColor=none;fillColor=none;" parent="1" vertex="1">
          <mxGeometry x="-227" y="3650" width="280" height="30" as="geometry" />
        </mxCell>
        <mxCell id="4-nQHDzcqD7yIo2uNKvR-216" value="&lt;font style=&quot;font-size: 24px;&quot;&gt;Physical Network&lt;/font&gt;" style="text;html=1;strokeColor=none;fillColor=none;align=center;verticalAlign=middle;whiteSpace=wrap;rounded=0;" parent="1" vertex="1">
          <mxGeometry x="2900" y="4000" width="60" height="30" as="geometry" />
        </mxCell>
        <mxCell id="4-nQHDzcqD7yIo2uNKvR-227" value="&lt;font style=&quot;&quot;&gt;&lt;font color=&quot;#0000ff&quot; style=&quot;font-size: 48px;&quot;&gt;Basic 5G network&lt;/font&gt;&lt;br&gt;&lt;/font&gt;" style="text;html=1;align=center;verticalAlign=middle;resizable=0;points=[];autosize=1;strokeColor=none;fillColor=none;" parent="1" vertex="1">
          <mxGeometry x="-605" y="3085" width="400" height="70" as="geometry" />
        </mxCell>
        <mxCell id="4-nQHDzcqD7yIo2uNKvR-228" value="&lt;font color=&quot;#ff8000&quot; style=&quot;font-size: 19px;&quot;&gt;Shared over multiple nodes&lt;/font&gt;" style="text;html=1;align=center;verticalAlign=middle;resizable=0;points=[];autosize=1;strokeColor=none;fillColor=none;" parent="1" vertex="1">
          <mxGeometry x="-530" y="3210" width="250" height="40" as="geometry" />
        </mxCell>
        <mxCell id="F2C1mFBNP2JFjnUDeWym-62" value="" style="rounded=1;whiteSpace=wrap;html=1;" vertex="1" parent="1">
          <mxGeometry x="1198" y="3270" width="650" height="690" as="geometry" />
        </mxCell>
        <mxCell id="F2C1mFBNP2JFjnUDeWym-63" value="" style="rhombus;whiteSpace=wrap;html=1;" vertex="1" parent="1">
          <mxGeometry x="1498" y="3820" width="40" height="40" as="geometry" />
        </mxCell>
        <mxCell id="F2C1mFBNP2JFjnUDeWym-64" value="Virtual Router" style="text;html=1;align=center;verticalAlign=middle;resizable=0;points=[];autosize=1;strokeColor=none;fillColor=none;" vertex="1" parent="1">
          <mxGeometry x="1538" y="3825" width="100" height="30" as="geometry" />
        </mxCell>
        <mxCell id="F2C1mFBNP2JFjnUDeWym-65" value="" style="endArrow=none;html=1;rounded=0;exitX=0.5;exitY=0;exitDx=0;exitDy=0;" edge="1" parent="1" source="F2C1mFBNP2JFjnUDeWym-63">
          <mxGeometry width="50" height="50" relative="1" as="geometry">
            <mxPoint x="1508" y="3790" as="sourcePoint" />
            <mxPoint x="1518" y="3740" as="targetPoint" />
          </mxGeometry>
        </mxCell>
        <mxCell id="F2C1mFBNP2JFjnUDeWym-66" value="Router Interface" style="text;html=1;align=center;verticalAlign=middle;resizable=0;points=[];autosize=1;strokeColor=none;fillColor=none;" vertex="1" parent="1">
          <mxGeometry x="1293" y="3760" width="110" height="30" as="geometry" />
        </mxCell>
        <mxCell id="F2C1mFBNP2JFjnUDeWym-67" value="" style="whiteSpace=wrap;html=1;aspect=fixed;" vertex="1" parent="1">
          <mxGeometry x="1640.8899999999999" y="3730" width="20" height="20" as="geometry" />
        </mxCell>
        <mxCell id="F2C1mFBNP2JFjnUDeWym-68" value="" style="endArrow=none;dashed=1;html=1;dashPattern=1 3;strokeWidth=2;rounded=0;entryX=0.865;entryY=-0.4;entryDx=0;entryDy=0;entryPerimeter=0;" edge="1" parent="1" target="F2C1mFBNP2JFjnUDeWym-83">
          <mxGeometry width="50" height="50" relative="1" as="geometry">
            <mxPoint x="1648.8899999999999" y="3730" as="sourcePoint" />
            <mxPoint x="1648" y="3290" as="targetPoint" />
          </mxGeometry>
        </mxCell>
        <mxCell id="F2C1mFBNP2JFjnUDeWym-69" value="" style="endArrow=none;dashed=1;html=1;dashPattern=1 3;strokeWidth=2;rounded=0;entryX=1;entryY=0;entryDx=0;entryDy=0;" edge="1" parent="1" target="F2C1mFBNP2JFjnUDeWym-83">
          <mxGeometry width="50" height="50" relative="1" as="geometry">
            <mxPoint x="1660.8899999999999" y="3730" as="sourcePoint" />
            <mxPoint x="1661" y="3360" as="targetPoint" />
          </mxGeometry>
        </mxCell>
        <mxCell id="F2C1mFBNP2JFjnUDeWym-70" value="AMF" style="shape=cube;whiteSpace=wrap;html=1;boundedLbl=1;backgroundOutline=1;darkOpacity=0.05;darkOpacity2=0.1;size=8;" vertex="1" parent="1">
          <mxGeometry x="1458" y="3610" width="120" height="80" as="geometry" />
        </mxCell>
        <mxCell id="F2C1mFBNP2JFjnUDeWym-71" value="" style="shape=process;whiteSpace=wrap;html=1;backgroundOutline=1;" vertex="1" parent="1">
          <mxGeometry x="1578" y="3650" width="80" height="10" as="geometry" />
        </mxCell>
        <mxCell id="F2C1mFBNP2JFjnUDeWym-180" style="edgeStyle=orthogonalEdgeStyle;rounded=0;orthogonalLoop=1;jettySize=auto;html=1;" edge="1" parent="1" source="F2C1mFBNP2JFjnUDeWym-72">
          <mxGeometry relative="1" as="geometry">
            <mxPoint x="1518" y="4020" as="targetPoint" />
          </mxGeometry>
        </mxCell>
        <mxCell id="F2C1mFBNP2JFjnUDeWym-72" value="" style="ellipse;whiteSpace=wrap;html=1;aspect=fixed;" vertex="1" parent="1">
          <mxGeometry x="1498" y="3940" width="40" height="40" as="geometry" />
        </mxCell>
        <mxCell id="F2C1mFBNP2JFjnUDeWym-73" value="" style="endArrow=none;dashed=1;html=1;dashPattern=1 3;strokeWidth=2;rounded=0;entryX=0.5;entryY=1;entryDx=0;entryDy=0;exitX=0.5;exitY=0;exitDx=0;exitDy=0;" edge="1" parent="1" source="F2C1mFBNP2JFjnUDeWym-72" target="F2C1mFBNP2JFjnUDeWym-63">
          <mxGeometry width="50" height="50" relative="1" as="geometry">
            <mxPoint x="1498" y="3930" as="sourcePoint" />
            <mxPoint x="1548" y="3880" as="targetPoint" />
          </mxGeometry>
        </mxCell>
        <mxCell id="F2C1mFBNP2JFjnUDeWym-74" value="" style="shape=process;whiteSpace=wrap;html=1;backgroundOutline=1;" vertex="1" parent="1">
          <mxGeometry x="1388" y="3650" width="80" height="10" as="geometry" />
        </mxCell>
        <mxCell id="F2C1mFBNP2JFjnUDeWym-75" value="" style="endArrow=none;html=1;rounded=0;entryX=0;entryY=0.5;entryDx=0;entryDy=0;" edge="1" parent="1" target="F2C1mFBNP2JFjnUDeWym-67">
          <mxGeometry width="50" height="50" relative="1" as="geometry">
            <mxPoint x="1378" y="3740" as="sourcePoint" />
            <mxPoint x="1543" y="3715" as="targetPoint" />
          </mxGeometry>
        </mxCell>
        <mxCell id="F2C1mFBNP2JFjnUDeWym-76" value="" style="whiteSpace=wrap;html=1;aspect=fixed;" vertex="1" parent="1">
          <mxGeometry x="1378" y="3730" width="20" height="20" as="geometry" />
        </mxCell>
        <mxCell id="F2C1mFBNP2JFjnUDeWym-77" value="" style="endArrow=none;dashed=1;html=1;dashPattern=1 3;strokeWidth=2;rounded=0;entryX=0;entryY=0;entryDx=0;entryDy=0;" edge="1" parent="1" target="F2C1mFBNP2JFjnUDeWym-84">
          <mxGeometry width="50" height="50" relative="1" as="geometry">
            <mxPoint x="1386" y="3730" as="sourcePoint" />
            <mxPoint x="1385" y="3360" as="targetPoint" />
          </mxGeometry>
        </mxCell>
        <mxCell id="F2C1mFBNP2JFjnUDeWym-78" value="" style="endArrow=none;dashed=1;html=1;dashPattern=1 3;strokeWidth=2;rounded=0;entryX=0.118;entryY=-0.044;entryDx=0;entryDy=0;entryPerimeter=0;" edge="1" parent="1" target="F2C1mFBNP2JFjnUDeWym-84">
          <mxGeometry width="50" height="50" relative="1" as="geometry">
            <mxPoint x="1398" y="3730" as="sourcePoint" />
            <mxPoint x="1398.1100000000001" y="3290" as="targetPoint" />
          </mxGeometry>
        </mxCell>
        <mxCell id="F2C1mFBNP2JFjnUDeWym-79" value="AUSF" style="shape=cube;whiteSpace=wrap;html=1;boundedLbl=1;backgroundOutline=1;darkOpacity=0.05;darkOpacity2=0.1;size=8;" vertex="1" parent="1">
          <mxGeometry x="1458" y="3510" width="120" height="80" as="geometry" />
        </mxCell>
        <mxCell id="F2C1mFBNP2JFjnUDeWym-80" value="" style="shape=process;whiteSpace=wrap;html=1;backgroundOutline=1;" vertex="1" parent="1">
          <mxGeometry x="1578" y="3550" width="80" height="10" as="geometry" />
        </mxCell>
        <mxCell id="F2C1mFBNP2JFjnUDeWym-81" value="" style="shape=process;whiteSpace=wrap;html=1;backgroundOutline=1;" vertex="1" parent="1">
          <mxGeometry x="1388" y="3550" width="80" height="10" as="geometry" />
        </mxCell>
        <mxCell id="F2C1mFBNP2JFjnUDeWym-82" value="UDM" style="shape=cube;whiteSpace=wrap;html=1;boundedLbl=1;backgroundOutline=1;darkOpacity=0.05;darkOpacity2=0.1;size=8;" vertex="1" parent="1">
          <mxGeometry x="1458" y="3400" width="120" height="80" as="geometry" />
        </mxCell>
        <mxCell id="F2C1mFBNP2JFjnUDeWym-83" value="" style="shape=process;whiteSpace=wrap;html=1;backgroundOutline=1;" vertex="1" parent="1">
          <mxGeometry x="1578" y="3440" width="80" height="10" as="geometry" />
        </mxCell>
        <mxCell id="F2C1mFBNP2JFjnUDeWym-84" value="" style="shape=process;whiteSpace=wrap;html=1;backgroundOutline=1;" vertex="1" parent="1">
          <mxGeometry x="1388" y="3440" width="80" height="10" as="geometry" />
        </mxCell>
        <mxCell id="F2C1mFBNP2JFjnUDeWym-85" value="ELK subnet A&lt;br&gt;cidr: 10.5.0.0/26" style="text;html=1;align=center;verticalAlign=middle;resizable=0;points=[];autosize=1;strokeColor=none;fillColor=none;" vertex="1" parent="1">
          <mxGeometry x="1679" y="3509.5" width="110" height="40" as="geometry" />
        </mxCell>
        <mxCell id="F2C1mFBNP2JFjnUDeWym-86" value="Router Interface" style="text;html=1;align=center;verticalAlign=middle;resizable=0;points=[];autosize=1;strokeColor=none;fillColor=none;" vertex="1" parent="1">
          <mxGeometry x="1648" y="3760" width="110" height="30" as="geometry" />
        </mxCell>
        <mxCell id="F2C1mFBNP2JFjnUDeWym-87" value="&lt;font style=&quot;font-size: 29px;&quot;&gt;Host B&lt;/font&gt;" style="text;html=1;align=center;verticalAlign=middle;resizable=0;points=[];autosize=1;strokeColor=none;fillColor=none;" vertex="1" parent="1">
          <mxGeometry x="1228" y="3345" width="110" height="50" as="geometry" />
        </mxCell>
        <mxCell id="F2C1mFBNP2JFjnUDeWym-88" value="5G subnet A&lt;br&gt;cidr: 10.4.0.0/26" style="text;html=1;align=center;verticalAlign=middle;resizable=0;points=[];autosize=1;strokeColor=none;fillColor=none;" vertex="1" parent="1">
          <mxGeometry x="1268" y="3510" width="110" height="40" as="geometry" />
        </mxCell>
        <mxCell id="F2C1mFBNP2JFjnUDeWym-89" value="10.4.0.1" style="text;html=1;align=center;verticalAlign=middle;resizable=0;points=[];autosize=1;strokeColor=none;fillColor=none;" vertex="1" parent="1">
          <mxGeometry x="1308" y="3725" width="70" height="30" as="geometry" />
        </mxCell>
        <mxCell id="F2C1mFBNP2JFjnUDeWym-90" value="10.5.0.1" style="text;html=1;align=center;verticalAlign=middle;resizable=0;points=[];autosize=1;strokeColor=none;fillColor=none;" vertex="1" parent="1">
          <mxGeometry x="1668" y="3725" width="70" height="30" as="geometry" />
        </mxCell>
        <mxCell id="F2C1mFBNP2JFjnUDeWym-149" value="" style="rounded=1;whiteSpace=wrap;html=1;" vertex="1" parent="1">
          <mxGeometry x="2032" y="3270" width="650" height="690" as="geometry" />
        </mxCell>
        <mxCell id="F2C1mFBNP2JFjnUDeWym-150" value="" style="rhombus;whiteSpace=wrap;html=1;" vertex="1" parent="1">
          <mxGeometry x="2332" y="3820" width="40" height="40" as="geometry" />
        </mxCell>
        <mxCell id="F2C1mFBNP2JFjnUDeWym-151" value="Virtual Router" style="text;html=1;align=center;verticalAlign=middle;resizable=0;points=[];autosize=1;strokeColor=none;fillColor=none;" vertex="1" parent="1">
          <mxGeometry x="2372" y="3825" width="100" height="30" as="geometry" />
        </mxCell>
        <mxCell id="F2C1mFBNP2JFjnUDeWym-152" value="" style="endArrow=none;html=1;rounded=0;exitX=0.5;exitY=0;exitDx=0;exitDy=0;" edge="1" parent="1" source="F2C1mFBNP2JFjnUDeWym-150">
          <mxGeometry width="50" height="50" relative="1" as="geometry">
            <mxPoint x="2342" y="3790" as="sourcePoint" />
            <mxPoint x="2352" y="3740" as="targetPoint" />
          </mxGeometry>
        </mxCell>
        <mxCell id="F2C1mFBNP2JFjnUDeWym-153" value="Router Interface" style="text;html=1;align=center;verticalAlign=middle;resizable=0;points=[];autosize=1;strokeColor=none;fillColor=none;" vertex="1" parent="1">
          <mxGeometry x="2127" y="3760" width="110" height="30" as="geometry" />
        </mxCell>
        <mxCell id="F2C1mFBNP2JFjnUDeWym-154" value="" style="whiteSpace=wrap;html=1;aspect=fixed;" vertex="1" parent="1">
          <mxGeometry x="2474.89" y="3730" width="20" height="20" as="geometry" />
        </mxCell>
        <mxCell id="F2C1mFBNP2JFjnUDeWym-155" value="" style="endArrow=none;dashed=1;html=1;dashPattern=1 3;strokeWidth=2;rounded=0;entryX=0.865;entryY=-0.4;entryDx=0;entryDy=0;entryPerimeter=0;" edge="1" parent="1" target="F2C1mFBNP2JFjnUDeWym-170">
          <mxGeometry width="50" height="50" relative="1" as="geometry">
            <mxPoint x="2482.89" y="3730" as="sourcePoint" />
            <mxPoint x="2482" y="3290" as="targetPoint" />
          </mxGeometry>
        </mxCell>
        <mxCell id="F2C1mFBNP2JFjnUDeWym-156" value="" style="endArrow=none;dashed=1;html=1;dashPattern=1 3;strokeWidth=2;rounded=0;entryX=1;entryY=0;entryDx=0;entryDy=0;" edge="1" parent="1" target="F2C1mFBNP2JFjnUDeWym-170">
          <mxGeometry width="50" height="50" relative="1" as="geometry">
            <mxPoint x="2494.89" y="3730" as="sourcePoint" />
            <mxPoint x="2495" y="3360" as="targetPoint" />
          </mxGeometry>
        </mxCell>
        <mxCell id="F2C1mFBNP2JFjnUDeWym-181" style="edgeStyle=orthogonalEdgeStyle;rounded=0;orthogonalLoop=1;jettySize=auto;html=1;" edge="1" parent="1" source="F2C1mFBNP2JFjnUDeWym-159">
          <mxGeometry relative="1" as="geometry">
            <mxPoint x="2352" y="4020" as="targetPoint" />
          </mxGeometry>
        </mxCell>
        <mxCell id="F2C1mFBNP2JFjnUDeWym-159" value="" style="ellipse;whiteSpace=wrap;html=1;aspect=fixed;" vertex="1" parent="1">
          <mxGeometry x="2332" y="3940" width="40" height="40" as="geometry" />
        </mxCell>
        <mxCell id="F2C1mFBNP2JFjnUDeWym-160" value="" style="endArrow=none;dashed=1;html=1;dashPattern=1 3;strokeWidth=2;rounded=0;entryX=0.5;entryY=1;entryDx=0;entryDy=0;exitX=0.5;exitY=0;exitDx=0;exitDy=0;" edge="1" parent="1" source="F2C1mFBNP2JFjnUDeWym-159" target="F2C1mFBNP2JFjnUDeWym-150">
          <mxGeometry width="50" height="50" relative="1" as="geometry">
            <mxPoint x="2332" y="3930" as="sourcePoint" />
            <mxPoint x="2382" y="3880" as="targetPoint" />
          </mxGeometry>
        </mxCell>
        <mxCell id="F2C1mFBNP2JFjnUDeWym-162" value="" style="endArrow=none;html=1;rounded=0;entryX=0;entryY=0.5;entryDx=0;entryDy=0;" edge="1" parent="1" target="F2C1mFBNP2JFjnUDeWym-154">
          <mxGeometry width="50" height="50" relative="1" as="geometry">
            <mxPoint x="2212" y="3740" as="sourcePoint" />
            <mxPoint x="2377" y="3715" as="targetPoint" />
          </mxGeometry>
        </mxCell>
        <mxCell id="F2C1mFBNP2JFjnUDeWym-163" value="" style="whiteSpace=wrap;html=1;aspect=fixed;" vertex="1" parent="1">
          <mxGeometry x="2212" y="3730" width="20" height="20" as="geometry" />
        </mxCell>
        <mxCell id="F2C1mFBNP2JFjnUDeWym-164" value="" style="endArrow=none;dashed=1;html=1;dashPattern=1 3;strokeWidth=2;rounded=0;entryX=0;entryY=0;entryDx=0;entryDy=0;" edge="1" parent="1" target="F2C1mFBNP2JFjnUDeWym-171">
          <mxGeometry width="50" height="50" relative="1" as="geometry">
            <mxPoint x="2220" y="3730" as="sourcePoint" />
            <mxPoint x="2219" y="3360" as="targetPoint" />
          </mxGeometry>
        </mxCell>
        <mxCell id="F2C1mFBNP2JFjnUDeWym-165" value="" style="endArrow=none;dashed=1;html=1;dashPattern=1 3;strokeWidth=2;rounded=0;entryX=0.118;entryY=-0.044;entryDx=0;entryDy=0;entryPerimeter=0;" edge="1" parent="1" target="F2C1mFBNP2JFjnUDeWym-171">
          <mxGeometry width="50" height="50" relative="1" as="geometry">
            <mxPoint x="2232" y="3730" as="sourcePoint" />
            <mxPoint x="2232.11" y="3290" as="targetPoint" />
          </mxGeometry>
        </mxCell>
        <mxCell id="F2C1mFBNP2JFjnUDeWym-166" value="UPF" style="shape=cube;whiteSpace=wrap;html=1;boundedLbl=1;backgroundOutline=1;darkOpacity=0.05;darkOpacity2=0.1;size=8;" vertex="1" parent="1">
          <mxGeometry x="2292" y="3510" width="120" height="80" as="geometry" />
        </mxCell>
        <mxCell id="F2C1mFBNP2JFjnUDeWym-167" value="" style="shape=process;whiteSpace=wrap;html=1;backgroundOutline=1;" vertex="1" parent="1">
          <mxGeometry x="2412" y="3550" width="80" height="10" as="geometry" />
        </mxCell>
        <mxCell id="F2C1mFBNP2JFjnUDeWym-168" value="" style="shape=process;whiteSpace=wrap;html=1;backgroundOutline=1;" vertex="1" parent="1">
          <mxGeometry x="2222" y="3550" width="80" height="10" as="geometry" />
        </mxCell>
        <mxCell id="F2C1mFBNP2JFjnUDeWym-169" value="SMF" style="shape=cube;whiteSpace=wrap;html=1;boundedLbl=1;backgroundOutline=1;darkOpacity=0.05;darkOpacity2=0.1;size=8;" vertex="1" parent="1">
          <mxGeometry x="2292" y="3400" width="120" height="80" as="geometry" />
        </mxCell>
        <mxCell id="F2C1mFBNP2JFjnUDeWym-170" value="" style="shape=process;whiteSpace=wrap;html=1;backgroundOutline=1;" vertex="1" parent="1">
          <mxGeometry x="2412" y="3440" width="80" height="10" as="geometry" />
        </mxCell>
        <mxCell id="F2C1mFBNP2JFjnUDeWym-171" value="" style="shape=process;whiteSpace=wrap;html=1;backgroundOutline=1;" vertex="1" parent="1">
          <mxGeometry x="2222" y="3440" width="80" height="10" as="geometry" />
        </mxCell>
        <mxCell id="F2C1mFBNP2JFjnUDeWym-172" value="ELK subnet A&lt;br&gt;cidr: 10.7.0.0/26" style="text;html=1;align=center;verticalAlign=middle;resizable=0;points=[];autosize=1;strokeColor=none;fillColor=none;" vertex="1" parent="1">
          <mxGeometry x="2513" y="3509.5" width="110" height="40" as="geometry" />
        </mxCell>
        <mxCell id="F2C1mFBNP2JFjnUDeWym-173" value="Router Interface" style="text;html=1;align=center;verticalAlign=middle;resizable=0;points=[];autosize=1;strokeColor=none;fillColor=none;" vertex="1" parent="1">
          <mxGeometry x="2482" y="3760" width="110" height="30" as="geometry" />
        </mxCell>
        <mxCell id="F2C1mFBNP2JFjnUDeWym-174" value="&lt;font style=&quot;font-size: 29px;&quot;&gt;Host C&lt;/font&gt;" style="text;html=1;align=center;verticalAlign=middle;resizable=0;points=[];autosize=1;strokeColor=none;fillColor=none;" vertex="1" parent="1">
          <mxGeometry x="2062" y="3345" width="110" height="50" as="geometry" />
        </mxCell>
        <mxCell id="F2C1mFBNP2JFjnUDeWym-175" value="5G subnet A&lt;br&gt;cidr: 10.6.0.0/26" style="text;html=1;align=center;verticalAlign=middle;resizable=0;points=[];autosize=1;strokeColor=none;fillColor=none;" vertex="1" parent="1">
          <mxGeometry x="2102" y="3510" width="110" height="40" as="geometry" />
        </mxCell>
        <mxCell id="F2C1mFBNP2JFjnUDeWym-176" value="10.6.0.1" style="text;html=1;align=center;verticalAlign=middle;resizable=0;points=[];autosize=1;strokeColor=none;fillColor=none;" vertex="1" parent="1">
          <mxGeometry x="2142" y="3725" width="70" height="30" as="geometry" />
        </mxCell>
        <mxCell id="F2C1mFBNP2JFjnUDeWym-177" value="10.7.0.1" style="text;html=1;align=center;verticalAlign=middle;resizable=0;points=[];autosize=1;strokeColor=none;fillColor=none;" vertex="1" parent="1">
          <mxGeometry x="2502" y="3725" width="70" height="30" as="geometry" />
        </mxCell>
        <mxCell id="F2C1mFBNP2JFjnUDeWym-184" style="edgeStyle=orthogonalEdgeStyle;rounded=0;orthogonalLoop=1;jettySize=auto;html=1;" edge="1" parent="1" source="F2C1mFBNP2JFjnUDeWym-183">
          <mxGeometry relative="1" as="geometry">
            <mxPoint x="1120.000000000001" y="4020.000000000001" as="targetPoint" />
          </mxGeometry>
        </mxCell>
        <mxCell id="F2C1mFBNP2JFjnUDeWym-183" value="" style="rounded=1;whiteSpace=wrap;html=1;" vertex="1" parent="1">
          <mxGeometry x="870" y="4260" width="500" height="240" as="geometry" />
        </mxCell>
        <mxCell id="F2C1mFBNP2JFjnUDeWym-185" value="&lt;font style=&quot;font-size: 26px;&quot;&gt;SSH Controller&lt;/font&gt;" style="text;html=1;strokeColor=none;fillColor=none;align=center;verticalAlign=middle;whiteSpace=wrap;rounded=0;" vertex="1" parent="1">
          <mxGeometry x="1090" y="4380" width="60" height="30" as="geometry" />
        </mxCell>
      </root>
    </mxGraphModel>
  </diagram>
</mxfile>
